<?xml version="1.0" encoding="UTF-8"?>
<svg width="16px" height="16px" viewBox="0 0 16 16" version="1.1" xmlns="http://www.w3.org/2000/svg" xmlns:xlink="http://www.w3.org/1999/xlink">
    <title>dujia</title>
    <g id="页面-1" stroke="none" stroke-width="1" fill="none" fill-rule="evenodd">
        <g id="请销假-弹框1" transform="translate(-911.000000, -657.000000)" fill="#B2C0D8" fill-rule="nonzero">
            <g id="dujia" transform="translate(911.000000, 657.000000)">
                <path d="M7.14907335,8.00353793 L8.84844325,13.0049615 C8.96564118,13.32482 9.31723495,13.4992882 9.63952924,13.382976 C9.96182352,13.2666639 10.1376204,12.9468054 10.049722,12.6269469 L8.35035208,7.62552336 L15.0892327,5.47374811 C13.8000555,1.72268045 9.78602664,-0.400016763 5.91849515,0.530480654 L5.88919568,0.414168472 C5.77199775,0.0943099951 5.42040398,-0.0801582684 5.09810969,0.0361538959 C4.77581541,0.152466077 4.60001852,0.472324554 4.68791695,0.792183049 L4.74651592,0.908495213 C1.11338027,2.4205535 -0.820385473,6.43332356 0.439492215,10.1553132 L7.14907335,8.00353793 Z M15.5287249,14.2553174 C14.8841363,14.2553174 14.5325426,14.5460978 14.2688472,14.7787222 C14.0637509,14.9531904 13.9172535,15.0695026 13.6242587,15.0695026 C13.3312639,15.0695026 13.2140659,14.9531904 12.9796701,14.7787222 C12.7159747,14.5460978 12.364381,14.2553174 11.7197924,14.2553174 C11.0752038,14.2553174 10.72361,14.5460978 10.4599147,14.7787222 C10.2548183,14.9531904 10.1376204,15.0695026 9.84462561,15.0695026 C9.5516308,15.0695026 9.43443288,14.9822685 9.22933651,14.7787222 C8.96564118,14.5460978 8.61404741,14.2553174 7.96945882,14.2553174 C7.32487023,14.2553174 6.97327646,14.5460978 6.70958113,14.7787222 C6.50448476,14.9531904 6.38728685,15.0695026 6.09429203,15.0695026 C5.80129722,15.0695026 5.68409931,14.9822685 5.47900293,14.7787222 C5.2153076,14.5460978 4.86371383,14.2553174 4.21912526,14.2553174 C3.57453667,14.2553174 3.2229429,14.5460978 2.95924757,14.7787222 C2.7541512,14.9531904 2.63695329,15.0695026 2.34395847,15.0695026 C2.05096366,15.0695026 1.93376575,14.9822685 1.72866937,14.7787222 C1.46497404,14.5460978 1.11338027,14.2553174 0.468791684,14.2553174 C0.205096355,14.2553174 0,14.4588637 0,14.7205661 C0,14.9822685 0.205096373,15.1858148 0.468791684,15.1858148 C0.7617865,15.1858148 0.878984412,15.302127 1.08408079,15.4765952 C1.34777611,15.7092196 1.69936989,16 2.34395847,16 C2.98854706,16 3.34014083,15.7092196 3.60383616,15.4765952 C3.80893253,15.3021269 3.92613045,15.1858148 4.21912526,15.1858148 C4.51212008,15.1858148 4.62931799,15.302127 4.83441436,15.4765952 C5.09810969,15.7092196 5.44970346,16 6.09429203,16 C6.7388806,16 7.09047439,15.7092196 7.35416972,15.4765952 C7.55926609,15.3021269 7.67646401,15.1858148 7.96945882,15.1858148 C8.26245364,15.1858148 8.37965155,15.302127 8.58474792,15.4765952 C8.84844325,15.7092196 9.20003702,16 9.84462561,16 C10.4892142,16 10.840808,15.7092196 11.1045033,15.4765952 C11.3095997,15.3021269 11.4267976,15.1858148 11.7197924,15.1858148 C12.0127872,15.1858148 12.1299851,15.302127 12.364381,15.4765952 C12.6280763,15.7092196 12.9796701,16 13.6242587,16 C14.2688472,16 14.620441,15.7092196 14.8841363,15.4765952 C15.0892327,15.3021269 15.2357301,15.1858148 15.5287249,15.1858148 C15.7924202,15.1858148 15.9975166,14.9822685 15.9975166,14.7205661 C16.0268161,14.4588637 15.7924202,14.2553174 15.5287249,14.2553174 Z" id="形状"></path>
            </g>
        </g>
    </g>
</svg>