<?xml version="1.0" encoding="UTF-8"?>
<svg width="60px" height="60px" viewBox="0 0 60 60" version="1.1" xmlns="http://www.w3.org/2000/svg" xmlns:xlink="http://www.w3.org/1999/xlink">
    <title>dujiachuhang</title>
    <g id="页面-1" stroke="none" stroke-width="1" fill="none" fill-rule="evenodd">
        <g id="请销假-弹框1" transform="translate(-689.000000, -585.000000)" fill="#D3E4FF" fill-rule="nonzero">
            <g id="弹框1" transform="translate(601.000000, 255.000000)">
                <g id="排序方式" transform="translate(35.000000, 290.000000)">
                    <g id="dujiachuhang" transform="translate(53.000000, 40.000000)">
                        <path d="M37.567043,9.47435357 C60,17.1428572 60,31.5769394 60,31.5769394 C48.7771377,20.2967359 30.0851349,22.1025858 30.0851349,22.1025859 C29.0126429,39.6905469 52.5180917,60 52.5180917,60 L37.6181141,60 C35.6391111,51.911827 30.6596841,45.4387452 24.2375001,42.6027978 C21.3647537,31.856719 22.6159943,22.1025858 22.6159944,22.1025859 C8.1245851,26.8461213 3.9239916,37.8974142 3.9239916,37.8974142 C0.642676922,21.3141162 18.8750403,15.7821111 18.8750402,15.782111 C6.72013128,13.416702 0.183037434,25.2564646 0.183037434,25.2564646 C-2.16623063,7.09622722 18.8750402,9.47435357 18.8750402,9.47435357 L22.6159944,-3.55271368e-15 L30.0979026,6.32047476 C47.1939352,-3.59898265 56.2718136,9.47435349 56.2718136,9.47435357 C48.2536594,6.30775755 37.567043,9.47435357 37.567043,9.47435357 Z M16.9981793,44.2051717 C24.6077651,44.2051717 30.9661103,50.8817295 33.0472555,60 L0.949103122,60 C3.03024827,50.8944468 9.38859348,44.2051717 16.9981793,44.2051717 Z" id="形状"></path>
                    </g>
                </g>
            </g>
        </g>
    </g>
</svg>