<?xml version="1.0" encoding="UTF-8"?>
<svg width="20px" height="20px" viewBox="0 0 20 20" version="1.1" xmlns="http://www.w3.org/2000/svg" xmlns:xlink="http://www.w3.org/1999/xlink">
    <title>shijia</title>
    <g id="页面-1" stroke="none" stroke-width="1" fill="none" fill-rule="evenodd">
        <g id="请销假-弹框1" transform="translate(-907.000000, -586.000000)" fill="#B2C0D8" fill-rule="nonzero">
            <g id="shijia" transform="translate(907.000000, 586.000000)">
                <path d="M16.2213976,13.4785182 C17.2550579,12.6973606 17.9326796,11.4309386 17.9326796,9.99881643 C17.9326796,7.63167239 16.0835763,5.71428571 13.8095238,5.71428571 C11.5354713,5.71428571 9.68636805,7.64350811 9.68636805,9.99881643 C9.68636805,11.4309386 10.3639898,12.6973606 11.39765,13.4785182 C9.20399329,14.6147473 7.61904762,17.1357557 7.61904762,19.2898568 C7.61904762,19.6804356 7.92914568,20 8.30815443,20 C8.68716318,20 8.99726124,19.6804356 8.99726124,19.2898568 C8.99726124,17.3132915 11.1564626,14.2833471 13.8095238,14.2833471 C16.462585,14.2833471 18.6217864,17.3132915 18.6217864,19.2898568 C18.6217864,19.6804356 18.9318844,20 19.3108932,20 C19.6899019,20 20,19.6804356 20,19.2898568 C20,17.1357557 18.4150543,14.626583 16.2213976,13.4785182 L16.2213976,13.4785182 Z M13.8095238,12.8630607 C12.2934888,12.8630607 11.0645817,11.5848029 11.0645817,10.0106521 C11.0645817,8.43650136 12.2934888,7.14640786 13.8095238,7.14640786 C15.3255588,7.14640786 16.5544659,8.42466564 16.5544659,9.99881643 C16.5659511,11.5848029 15.3255588,12.8630607 13.8095238,12.8630607 L13.8095238,12.8630607 Z" id="形状"></path>
                <path d="M5.73418167,16.1904762 C5.65038361,16.1904762 5.56658555,16.1787269 5.48278748,16.1434792 C2.20269192,14.9215564 0,11.7845048 0,8.34197249 C0,3.74801299 3.8187974,0 8.49951772,0 C11.755671,0 14.6646608,1.77413781 16.1131702,4.64095653 C16.2927375,4.99343424 16.1490837,5.41640749 15.7899491,5.58089709 C15.4308146,5.75713595 14.9998531,5.61614486 14.832257,5.26366715 C13.6351418,2.89031723 11.204998,1.40991084 8.49951772,1.40991084 C4.60889341,1.40991084 1.43653821,4.52346396 1.43653821,8.34197249 C1.43653821,11.2087912 3.26812442,13.805377 5.99754701,14.8275624 C6.36865271,14.9685535 6.56019114,15.3680282 6.41653732,15.7322552 C6.2968258,16.0259866 6.02148931,16.1904762 5.73418167,16.1904762 L5.73418167,16.1904762 Z" id="路径"></path>
                <path d="M8.0952381,9.52380952 C7.83333333,9.52380952 7.61904762,9.19231781 7.61904762,8.78716127 L7.61904762,3.59379111 C7.61904762,3.18863457 7.83333333,2.85714286 8.0952381,2.85714286 C8.35714286,2.85714286 8.57142857,3.18863457 8.57142857,3.59379111 L8.57142857,8.78716127 C8.57142857,9.19231781 8.35714286,9.52380952 8.0952381,9.52380952 L8.0952381,9.52380952 Z" id="路径"></path>
                <path d="M7.89279963,8.57142857 L4.49965493,8.57142857 C4.12008282,8.57142857 3.80952381,8.35714286 3.80952381,8.0952381 C3.80952381,7.83333333 4.12008282,7.61904762 4.49965493,7.61904762 L7.88129745,7.61904762 C8.26086957,7.61904762 8.57142857,7.83333333 8.57142857,8.0952381 C8.57142857,8.35714286 8.27237175,8.57142857 7.89279963,8.57142857 L7.89279963,8.57142857 Z" id="路径"></path>
            </g>
        </g>
    </g>
</svg>