<?xml version="1.0" encoding="UTF-8"?>
<svg width="60px" height="65px" viewBox="0 0 60 65" version="1.1" xmlns="http://www.w3.org/2000/svg" xmlns:xlink="http://www.w3.org/1999/xlink">
    <title>xiujiashenqing</title>
    <g id="页面-1" stroke="none" stroke-width="1" fill="none" fill-rule="evenodd">
        <g id="请销假-弹框1" transform="translate(-690.000000, -378.000000)" fill="#0071FE" fill-rule="nonzero">
            <g id="弹框1" transform="translate(601.000000, 255.000000)">
                <g id="排序方式" transform="translate(35.000000, 90.000000)">
                    <g id="编组" transform="translate(43.000000, 30.000000)">
                        <g id="编组-3" transform="translate(0.000000, 3.000000)">
                            <g id="xiujiashenqing" transform="translate(11.000000, 0.000000)">
                                <path d="M11.9715606,55.9997093 C11.4567941,56.008976 10.9613663,55.7963472 10.6032915,55.4124724 C10.2010972,55.0464979 10,54.6291402 10,54.1583021 C10,53.6098647 10.2021077,53.1537075 10.6032915,52.787733 C10.9718838,52.4249073 11.4636352,52.2278007 11.9715606,52.2392956 L22.068861,52.2392956 C22.6044464,52.2392956 23.0612098,52.4228072 23.4371301,52.787733 C23.8120399,53.1537074 24,53.6098647 24,54.1583021 C24,54.6291403 23.8120399,55.0464979 23.4371301,55.4114238 C23.0349358,55.8036142 22.5781724,55.9986607 22.068861,55.9986607 L11.9715606,55.9986607 L11.9715606,55.9997093 Z M11.9715606,44.7195168 C11.4359752,44.7195168 10.9792118,44.5244703 10.6032915,44.1322799 C10.2010972,43.7673541 10,43.3353155 10,42.8403586 C10,42.2919213 10.2021077,41.8483476 10.6032915,41.5085892 C10.9792118,41.1688307 11.4359752,41 11.9715606,41 L22.068861,41 C22.6044464,41 23.0612098,41.1688306 23.4371301,41.5085892 C23.8120399,41.8483477 24,42.2919213 24,42.8403586 C24,43.3363641 23.8120399,43.7673541 23.4371301,44.1322799 C23.0349358,44.5244703 22.5781724,44.7195168 22.068861,44.7195168 L11.9715606,44.7195168 Z" id="形状"></path>
                                <path d="M54.2508424,0 C54.7011107,0 55.0994634,0.188557787 55.4429053,0.564665002 C55.8143018,0.916572268 56,1.31788779 56,1.76961979 L56,30.6935761 C56,31.2209329 55.8272807,31.6474567 55.4828404,31.9741557 C55.1653563,32.3008547 54.7540247,32.4631959 54.2508424,32.4631959 C53.7217022,32.4631959 53.2973917,32.3008547 52.9789093,31.9741557 C52.6614252,31.6474567 52.5026831,31.2209329 52.5026831,30.6935761 L52.5026831,3.57755616 L3.53725199,3.57755616 L3.53725199,61.4224439 L27.9795332,61.4224439 C28.536628,61.4224439 28.9739174,61.5857935 29.2914015,61.9114841 C29.6098839,62.2381832 29.768626,62.6657152 29.768626,63.1920637 C29.768626,63.7446287 29.6088856,64.1842608 29.2914015,64.5099514 C28.9739174,64.8366505 28.536628,65 27.9795332,65 L1.74915761,65 C1.3248471,65 0.927492834,64.8114422 0.556096324,64.435335 C0.185698221,64.0582194 0,63.6437957 0,63.1920637 L0,1.76961979 C0,1.31788779 0.185698221,0.917580628 0.556096324,0.564665002 C0.928491241,0.188557787 1.3248471,0 1.74915761,0 L54.2508424,0 Z" id="路径"></path>
                                <path d="M55.9036574,40.1248342 C53.1461195,37.3752705 49.8310794,36 45.9595361,36 C42.1419447,36 38.8538805,37.3752705 36.0963425,40.1248342 C33.3647814,42.8519165 32,46.1361446 32,49.9814285 C32,53.8511485 33.3647815,57.149061 36.0963425,59.8751658 C38.8538804,62.6247295 42.1409455,64 45.9595361,64 C49.8310794,64 53.1461195,62.6247295 55.9036574,59.8751658 C58.6342195,57.149061 60,53.8511485 60,49.9814285 C60,46.1361447 58.6342195,42.850939 55.9036574,40.1248342 Z M53.3978947,57.4295888 C51.3297413,59.4978706 48.8499554,60.5320115 45.9595361,60.5320115 C43.0960928,60.5320115 40.6302944,59.4861412 38.5621409,57.3924457 C36.4939875,55.3486001 35.4599107,52.8776095 35.4599107,49.9814285 C35.4599107,47.0852475 36.4939874,44.6152343 38.5621409,42.5713887 C40.6302944,40.5021294 43.0960928,39.4679885 45.9595361,39.4679885 C48.8499554,39.4679885 51.3297413,40.5021294 53.3978947,42.5713887 C55.4660482,44.6152343 56.5001249,47.0852475 56.5001249,49.9814285 C56.5001249,52.8776095 55.4660482,55.3603296 53.3978947,57.4295888 Z" id="形状"></path>
                                <path d="M46.252684,43.9840494 C46.2029657,43.8627753 46.1196362,43.7582162 46.0124969,43.6826706 C45.5321227,43.4084159 45.1452103,43.507871 44.85176,43.9840494 L43.4518408,47.0601222 C43.4518408,47.1354669 43.385513,47.2108116 43.2518524,47.2851517 C43.1597355,47.3551746 43.0479556,47.3945291 42.9322728,47.3976664 L39.7716514,47.7733853 C39.4510669,47.8738449 39.2510784,48.0606998 39.1716861,48.3359591 C39.0641546,48.6112184 39.1314874,48.8362479 39.3716745,49.0110476 L41.8519332,51.1498323 C41.9323306,51.2502919 41.9855939,51.3748618 42.0127279,51.5245466 L42.0519217,51.712406 L42.0519217,51.9002655 L41.3313603,55.1270277 C41.3313603,55.4274019 41.4519564,55.6644866 41.6921435,55.8402908 C41.9051965,56.0150905 42.1443786,56.0271456 42.4116999,55.8774609 L45.2125431,54.2640798 C45.4255961,54.0129308 45.6647783,54.0129308 45.9320995,54.2640798 L48.7329428,55.8774609 C49.000264,56.0522606 49.2655753,56.0402055 49.5328965,55.8402908 C49.7730837,55.6393716 49.8665456,55.402287 49.8132824,55.1270277 L49.092721,51.9002655 C49.092721,51.5245466 49.1459842,51.2744022 49.2535157,51.1498323 L51.7327694,49.0110476 C52.0000165,48.8362479 52.0664185,48.5861034 51.9337629,48.2606144 C51.8262314,47.9351253 51.6403125,47.7733853 51.3729913,47.7733853 L48.2123698,47.3976664 C48.1100861,47.3889187 48.0127725,47.3497277 47.932989,47.2851517 L47.6928018,47.0601222 L46.252684,43.9840494 L46.252684,43.9840494 Z M46.9601809,9.64093225 C47.6636578,10.0427707 48.2033252,10.5320089 48.5801878,11.1096515 C48.9068021,11.6119495 48.9821746,12.177537 48.8063053,12.8054095 C48.6555603,13.4835118 48.2415139,14.0983245 47.5631611,14.6518568 C35.6030479,23.0904628 26.4317185,29.457592 20.0501776,33.7522396 C19.3718248,34.2043078 18.6804075,34.4554568 17.9779355,34.5056866 C16.8473475,34.6131784 15.7167596,34.7136379 14.5851667,34.8070654 L14.1329315,34.8070654 C13.9319381,34.8070654 13.7560689,34.7950102 13.6053238,34.7698953 C13.2258336,34.6929982 12.8818082,34.4944189 12.6254809,34.2043078 L7.42477635,28.0632127 C7.09816203,27.6613743 6.96048157,27.1841913 7.00972495,26.6316635 C7.05997334,26.0791358 7.23584257,25.6019527 7.53733266,25.2001143 C8.16644207,24.295978 8.9573511,24.0578887 9.91206983,24.4838374 C10.2135599,24.6345268 10.6537355,24.8233908 11.2305866,25.0494249 L11.9471281,25.3508037 L12.7390422,25.6521825 C14.0454994,26.2047102 15.0755906,26.6949531 15.8293159,27.1219064 C15.943581,27.1974171 16.0919135,27.1974171 16.2061786,27.1219064 L20.8039029,24.3713226 C20.8858451,24.3140885 20.9510584,24.2360695 20.9928367,24.1452886 C21.0430851,24.0197141 21.0802689,23.9071994 21.105393,23.8057351 C21.1651418,23.5276781 21.0446989,23.2419326 20.8039029,23.0904628 L15.4142645,19.6246067 L14.2464928,18.8711598 L12.2114345,17.5521254 C11.9099444,17.3763211 11.7089509,17.1131169 11.6084542,16.7615083 C11.5079575,16.334555 11.6587026,15.9447718 12.0606894,15.5931632 L12.8144147,14.8025462 L13.6053238,14.0490993 L13.9821864,13.6713712 C14.1580557,13.4955669 14.3088008,13.3699924 14.4344216,13.2956523 C14.8364085,13.0183838 15.2132711,12.9179242 15.5650096,12.9942735 L23.6680591,14.2741287 L31.8464811,15.5931632 C31.9218536,15.5931632 32.0102907,15.581108 32.1107874,15.5559932 C32.1107874,15.5057633 32.122847,15.4675887 32.1479712,15.4424739 C32.2126504,15.4218515 32.2757865,15.3966736 32.336905,15.3671292 C32.5127743,15.2415547 32.7137677,15.1290399 32.9398853,15.0275757 C33.5428655,14.6518568 34.1830296,14.2741287 34.8613823,13.8984098 C36.8536833,12.6611079 38.8263439,11.3924804 40.7786284,10.0930004 C41.8837743,9.42215153 43.1425624,9.04583056 44.4346986,9 C45.3140448,9 46.1562072,9.21297433 46.9601809,9.64093225 L46.9601809,9.64093225 Z" id="形状"></path>
                            </g>
                        </g>
                    </g>
                </g>
            </g>
        </g>
    </g>
</svg>