<?xml version="1.0" encoding="UTF-8"?>
<svg width="16px" height="18px" viewBox="0 0 16 18" version="1.1" xmlns="http://www.w3.org/2000/svg" xmlns:xlink="http://www.w3.org/1999/xlink">
    <title>zhibanchang</title>
    <g id="页面-1" stroke="none" stroke-width="1" fill="none" fill-rule="evenodd">
        <g id="请销假-弹框1" transform="translate(-1114.000000, -456.000000)" fill="#666666" fill-rule="nonzero">
            <g id="弹框1" transform="translate(601.000000, 255.000000)">
                <g id="zhibanchang" transform="translate(513.000000, 201.000000)">
                    <path d="M0,17.7758672 C0.108147966,16.2531494 0.326410225,14.1973849 0.808160256,12.3097498 C0.908442915,11.8225566 1.26434804,11.4136963 1.276146,11.3984118 C1.32137151,11.109917 4.97087379,11.1080064 4.97087379,11.1080064 L5.57453607,11.0526002 C5.4880177,11.572273 5.42312892,12.361335 5.65318914,13.0395845 C5.95207079,13.9299063 6.42792184,14.8125858 7.07484331,15.3379903 L7.21248617,12.9746254 L8.45717095,12.9746254 L8.67150055,15.1908771 C9.12375568,14.5623022 9.65073123,13.5726312 9.70578837,12.3116604 C9.74904756,11.3258105 10.0027037,10.8749179 10.220966,10.6666667 C11.7330712,10.7258941 13.6286101,10.9952833 14.3895785,11.4003224 C15.115153,11.7862559 15.3432469,14.1973849 16,17.7777778 L0,17.7777778 L0,17.7758672 L0,17.7758672 Z" id="路径"></path>
                    <path d="M8.25538924,12.4444444 L7.47962787,12.4444444 L6.85823715,11.9155403 L7.79032323,10.6827561 L8.72045525,11.7405645 L8.25538924,12.4444444 Z M12.3725913,1.96975581 C12.0013201,1.21417842 9.8440391,0.0808123337 7.49135222,0.00326623331 C5.13866534,-0.0762682286 2.64724028,1.31359649 2.66678087,2.32964925 C2.68632146,3.34371364 3.92128667,3.78115318 3.92128667,3.78115318 C3.85680273,3.97800097 3.89002173,4.7415318 3.89002173,4.7415318 C3.89002173,4.7415318 3.94668943,4.84691497 4.05416267,4.99405372 C3.69070772,9.8715046 7.882164,9.95501579 7.882164,9.95501579 C11.5147594,9.57126201 11.2255587,5.55676004 11.1903857,4.97615847 C11.1767073,4.76340378 11.1513045,4.59439305 11.1200395,4.44327757 C11.1649829,4.11519792 11.0399231,3.77717645 11.0399231,3.77717645 C11.5694731,3.56044504 12.7458165,2.72533319 12.3725913,1.96975581 Z M6.89731833,1.58997875 C6.89341021,1.55816496 6.88754803,1.52635118 6.88754803,1.49254903 C6.88754803,1.08095819 7.24318675,0.746913453 7.68284999,0.746913453 C8.12251324,0.746913453 8.47815195,1.08095819 8.47815195,1.49254903 C8.47815195,1.54424643 8.47228978,1.59594383 8.46056542,1.64565287 C8.69700655,1.6237809 8.95298826,1.60389728 9.18552127,1.59992056 C9.18552127,1.59992056 8.52309531,1.91408168 8.14596195,2.09899931 C8.08929424,2.13677818 8.02871841,2.1666036 7.96228041,2.19046394 C7.95837229,2.1924523 7.95251012,2.19642902 7.94664794,2.19841738 C7.94664794,2.19841738 7.92515329,2.20438247 7.88998023,2.21034755 C7.82354223,2.22824281 7.75319611,2.24017298 7.68089594,2.24017298 C7.66721752,2.24017298 7.65353911,2.23619625 7.6398607,2.23619625 C7.4639954,2.23619625 7.24123269,2.20040574 7.06145927,2.04730191 C7.06145927,2.04730191 6.78984509,1.85840756 6.1762706,1.5979322 C6.17822466,1.5979322 6.5045525,1.5561766 6.89731833,1.58997875 L6.89731833,1.58997875 Z M10.4400271,3.7334325 L4.4234798,3.7334325 L4.4234798,3.0096689 L10.4400271,3.0096689 L10.4400271,3.7334325 Z" id="形状"></path>
                </g>
            </g>
        </g>
    </g>
</svg>