<?xml version="1.0" encoding="UTF-8"?>
<svg width="16px" height="17px" viewBox="0 0 16 17" version="1.1" xmlns="http://www.w3.org/2000/svg" xmlns:xlink="http://www.w3.org/1999/xlink">
    <title>形状</title>
    <g id="页面-1" stroke="none" stroke-width="1" fill="none" fill-rule="evenodd">
        <g id="请销假-弹框1" transform="translate(-913.000000, -456.000000)" fill="#666666" fill-rule="nonzero">
            <g id="winfo-icon-shouxie" transform="translate(913.000000, 456.000000)">
                <path d="M4.13963647,12.2344508 C4.42339475,12.5170224 4.93657463,12.4847285 5.14184658,12.2808733 C5.34913101,12.0770181 5.45780439,11.5764627 5.17203364,11.2938912 L3.01466568,9.15442074 C2.73090739,8.87184917 2.22175245,8.92432675 1.99434333,9.14836563 C1.76693421,9.37442288 1.82529584,9.94158439 2.1110666,10.224156 L4.13963647,12.2344508 Z M5.72747539,10.9507686 C6.01123367,11.2333401 6.48617662,11.2414136 6.77999725,10.9709522 C6.77999725,10.9709522 7.16639152,10.6157194 7.65743422,10.1292926 C12.6262229,5.20043716 15.1860849,1.15159028 14.2261367,0.19892042 C13.2661884,-0.751731067 9.15269952,1.75306404 4.18391081,6.68393789 C3.69488057,7.16834629 3.33464842,7.55183628 3.33464842,7.55183628 C3.06095249,7.84449968 3.07101484,8.31477951 3.35477312,8.59533271 L5.72747539,10.9507686 Z M3.36282301,12.7430796 L1.73875962,11.1324217 C1.45500134,10.8498501 1.09275672,10.920493 0.93377158,11.2858177 C0.93377158,11.2858177 -0.275722957,14.0832762 0.0583470814,14.4142886 C0.384367239,14.7372276 3.20786281,13.5423535 3.20786281,13.5423535 C3.57815731,13.3849208 3.64658129,13.0256512 3.36282301,12.7430796 L3.36282301,12.7430796 Z M2.21973998,16.8 C1.56367473,16.8 1.16721811,16.7333938 1.15111835,16.7313755 C1.07665696,16.7192653 1.01024544,16.6809163 0.959933691,16.6264203 C0.734537039,16.4851345 0.591651661,16.2267834 0.591651661,15.9442118 C0.591651661,15.6616403 0.734537039,15.4032891 0.959933691,15.2620033 L0.978045922,15.243838 C1.0404325,15.183287 1.12294377,15.1509931 1.20746752,15.1509931 C1.21954234,15.1509931 1.23161716,15.1509931 1.24369198,15.1530114 C1.24570445,15.1530114 1.25174186,15.1530114 1.26582915,15.1550298 C1.29199126,15.1530114 1.31815337,15.1509931 1.34431548,15.1509931 C1.40670206,15.1509931 1.46707616,15.1590665 1.52745026,15.1752135 C1.68039799,15.183287 1.90780711,15.1933788 2.18552799,15.1933788 C3.40508488,15.1933788 5.68923845,15.0097073 7.27707737,13.7825393 C8.02169131,13.205286 9.04201366,12.9005124 10.2253461,12.9005124 C11.1611447,12.9005124 12.1553049,13.090239 13.1031783,13.4515269 C14.0510518,13.8128149 14.9063516,14.3274988 15.5825415,14.9431011 C15.7133521,15.0117257 15.8220255,15.1166808 15.8964869,15.2498931 L15.9005118,15.2539299 C15.9810106,15.3387013 16.0132101,15.4557667 15.9950979,15.5667769 C15.9971104,15.5950341 15.9991228,15.6232913 15.9991228,15.6535668 C15.9991228,16.0895343 15.6630403,16.4447672 15.2484715,16.4447672 C15.2202969,16.4447672 15.1941348,16.4427488 15.1659602,16.4407304 C15.147848,16.4447672 15.1297357,16.4447672 15.1116235,16.4447672 L15.1055861,16.4447672 C15.015025,16.4427488 14.9284887,16.4023814 14.8661022,16.3337569 C14.7715161,16.2732059 14.6890048,16.1924711 14.6266182,16.0955895 C14.0671515,15.5768688 12.6382978,14.4607111 10.7103514,14.4607111 C9.77656525,14.4607111 8.83472924,14.7271357 7.91301793,15.2519115 C6.88665817,15.8352199 5.7938869,16.2610957 4.66086623,16.5174284 C3.83977842,16.7071551 3.01869062,16.8 2.21973998,16.8 L2.21973998,16.8 Z" id="形状"></path>
            </g>
        </g>
    </g>
</svg>