<?xml version="1.0" encoding="UTF-8"?>
<svg width="17px" height="16px" viewBox="0 0 17 16" version="1.1" xmlns="http://www.w3.org/2000/svg" xmlns:xlink="http://www.w3.org/1999/xlink">
    <title>chehui01</title>
    <g id="页面-1" stroke="none" stroke-width="1" fill="none" fill-rule="evenodd">
        <g id="请销假V2.0-查询" transform="translate(-1745.000000, -726.000000)" fill="#666666">
            <g id="表单" transform="translate(200.000000, 80.000000)">
                <g id="表单" transform="translate(20.000000, 90.000000)">
                    <g id="文字" transform="translate(50.000000, 0.000000)">
                        <g id="icon" transform="translate(1464.000000, 56.000000)">
                            <g id="chehui01" transform="translate(11.000000, 500.000000)">
                                <path d="M4.34490875,0 L0,4.36871508 L4.34490875,8.73743017 L5.48457356,7.57395903 L3.08646555,5.08087896 L10.9217877,5.08087896 C13.448298,5.08087896 15.4804469,7.11277467 15.4804469,9.63979143 C15.4804469,12.1663017 13.448298,14.1984507 10.9217877,14.1984507 L1.80446927,14.1984507 L1.80446927,15.7180037 L10.9217877,15.7180037 C14.2696164,15.7180037 17,12.9876201 17,9.63979143 C17,6.2917095 14.2696164,3.56157914 10.9217877,3.56157914 L3.08646555,3.56157914 L5.48457356,1.1396648 L4.34490875,0 Z" id="chehui"></path>
                            </g>
                        </g>
                    </g>
                </g>
            </g>
        </g>
    </g>
</svg>