<?xml version="1.0" encoding="UTF-8"?>
<svg width="20px" height="19px" viewBox="0 0 20 19" version="1.1" xmlns="http://www.w3.org/2000/svg" xmlns:xlink="http://www.w3.org/1999/xlink">
    <title>geren01</title>
    <g id="页面-1" stroke="none" stroke-width="1" fill="none" fill-rule="evenodd">
        <g id="请销假V2.0-我要请假" transform="translate(-23.000000, -445.000000)" fill="#72E8F4">
            <g id="业务配置" transform="translate(0.000000, 419.000000)">
                <g id="geren01" transform="translate(23.000000, 26.000000)">
                    <path d="M1.77576344,16.4105914 L1.77576344,13.9425269 L7.07834409,11.4030645 C7.51931183,11.1939247 7.70791398,10.6651075 7.49888172,10.2243548 C7.47619355,10.1763978 7.44898925,10.1302688 7.41845161,10.0876882 L5.62232258,7.56413978 L5.62232258,4.39037634 C5.62232258,2.98370968 6.76468817,1.88188172 8.22307527,1.88188172 C9.68189247,1.88188172 10.8246882,2.98370968 10.8246882,4.39037634 L10.8246882,7.57102151 L9.08662366,10.0999462 C8.80952688,10.502957 8.91189247,11.0563978 9.31511828,11.3336022 C9.34866667,11.3567204 9.38415054,11.3776882 9.42092473,11.3960753 L10.7524301,12.0633871 L11.7729677,10.5895161 L11.1268387,10.2648925 L12.4431828,8.34919355 C12.5450108,8.20069892 12.5989892,8.02704301 12.5989892,7.84682796 L12.5989892,4.39037634 C12.5989892,1.98876344 10.6768387,0.107580645 8.22307527,0.107580645 C5.76984946,0.107580645 3.84802151,1.98876344 3.84802151,4.39037634 L3.84802151,7.84682796 C3.84802151,8.03241935 3.90458065,8.21016129 4.01167742,8.36091398 L5.36092473,10.257043 L0.504473118,12.5837097 C0.198129032,12.7301613 -4.30107527e-05,13.0443548 -4.30107527e-05,13.3841398 L-4.30107527e-05,17.2976882 C-4.30107527e-05,17.7873656 0.398236559,18.1856452 0.887913978,18.1856452 L11.8686667,18.1856452 L10.8752258,16.4105914 L1.77576344,16.4105914 Z" id="Fill-1"></path>
                    <path d="M13.9136559,16.4308602 L12.5694624,14.1029032 L13.9136559,11.7748387 L16.602043,11.7748387 L17.9462366,14.1029032 L16.602043,16.4308602 L13.9136559,16.4308602 Z M17.6260215,10.0006452 L12.8892473,10.0006452 L10.5207527,14.1029032 L12.8892473,18.2050538 L17.6260215,18.2050538 L19.9945161,14.1029032 L17.6260215,10.0006452 Z" id="Fill-3"></path>
                    <path d="M15.2578495,12.8201828 C14.5515054,12.8201828 13.9763441,13.394914 13.9758062,14.1027634 C13.9753763,14.8095376 14.5502151,15.3850215 15.2569892,15.3855591 L15.2576344,15.3855591 L15.2577419,15.3855591 C15.9641935,15.3855591 16.5392473,14.810828 16.5396778,14.1029785 C16.5402151,13.3962043 15.9654839,12.8207204 15.2578495,12.8201828 L15.2578495,12.8201828 Z" id="Fill-5"></path>
                </g>
            </g>
        </g>
    </g>
</svg>
