<?xml version="1.0" encoding="UTF-8"?>
<svg width="16px" height="16px" viewBox="0 0 16 16" version="1.1" xmlns="http://www.w3.org/2000/svg" xmlns:xlink="http://www.w3.org/1999/xlink">
    <title>guanbi02</title>
    <g id="页面-1" stroke="none" stroke-width="1" fill="none" fill-rule="evenodd">
        <g id="请假申请-弹框" transform="translate(-1167.000000, -792.000000)">
            <g id="弹框2" transform="translate(460.000000, 100.000000)">
                <g id="排序方式" transform="translate(518.000000, 680.000000)">
                    <g id="guanbi02" transform="translate(189.000000, 12.000000)">
                        <path d="M13.6273333,2.33514286 C10.5138095,-0.778380952 5.44828571,-0.778380952 2.33514286,2.33514286 C-0.778380952,5.44828571 -0.778380952,10.5138095 2.33514286,13.6273333 C5.44828571,16.7404762 10.5138095,16.7404762 13.6273333,13.6273333 C16.7404762,10.5138095 16.7404762,5.44828571 13.6273333,2.33514286" id="路径" fill="#C5DFFF"></path>
                        <path d="M10.7454286,5.358 C10.4479048,5.06047619 9.96561905,5.06047619 9.66809524,5.358 L8.05171429,6.97438095 L6.30085714,5.22314286 C6.00333333,4.92561905 5.52066667,4.92561905 5.22314286,5.22314286 C4.92561905,5.52066667 4.92561905,6.00333333 5.22314286,6.30085714 L6.97438095,8.05171429 L5.358,9.66809524 C5.06047619,9.96561905 5.06047619,10.4479048 5.358,10.7454286 C5.65552381,11.0429524 6.13780952,11.0429524 6.43533333,10.7454286 L8.05171429,9.12904762 L9.66809524,10.7454286 C9.96561905,11.0429524 10.4479048,11.0429524 10.7454286,10.7454286 C11.0429524,10.4479048 11.0429524,9.96561905 10.7454286,9.66809524 L9.12904762,8.05171429 L10.7454286,6.43533333 C11.0429524,6.13780952 11.0429524,5.65552381 10.7454286,5.358" id="Fill-3" fill="#0071FE"></path>
                    </g>
                </g>
            </g>
        </g>
    </g>
</svg>
