<?xml version="1.0" encoding="UTF-8"?>
<svg width="19px" height="19px" viewBox="0 0 19 19" version="1.1" xmlns="http://www.w3.org/2000/svg" xmlns:xlink="http://www.w3.org/1999/xlink">
    <title>jindu01</title>
    <g id="页面-1" stroke="none" stroke-width="1" fill="none" fill-rule="evenodd">
        <g id="请销假V2.0-查询" transform="translate(-1783.000000, -235.000000)" fill="#666666">
            <g id="表单" transform="translate(200.000000, 80.000000)">
                <g id="表单" transform="translate(20.000000, 90.000000)">
                    <g id="文字" transform="translate(50.000000, 0.000000)">
                        <g id="icon" transform="translate(1464.000000, 56.000000)">
                            <g id="jindu01" transform="translate(49.336207, 9.000000)">
                                <path d="M14.9679471,17.1428291 C14.538065,17.1229777 14.1938804,16.7677105 14.1746483,16.3239864 C14.1542204,15.8506395 14.5093664,15.4497038 14.9679471,15.4285153 C15.3978291,15.4483667 15.7420138,15.803634 15.7612459,16.2473581 C15.7816738,16.7207049 15.4265278,17.1216406 14.9679471,17.1428291 M9.57030654,8.57146597 C10.0001886,8.59131733 10.3443733,8.94648175 10.3636053,9.39020585 C10.3841329,9.86365556 10.0289869,10.2645912 9.57030654,10.2856769 C9.14042449,10.2658255 8.79633948,9.9106611 8.77710739,9.466937 C8.75657987,8.9934873 9.11172583,8.59265447 9.57030654,8.57146597 M3.3422981,3.42862753 C2.91241605,3.40877618 2.56833103,3.0535089 2.54909894,2.6097848 C2.52857143,2.13643795 2.88371738,1.73550226 3.3422981,1.71431377 C3.77218015,1.73416512 4.11636481,2.0894324 4.1355969,2.5331565 C4.15612442,3.00650335 3.80097847,3.40743904 3.3422981,3.42862753 M14.9679471,13.7143044 C13.885569,13.7143044 12.9625284,14.4310104 12.6196391,15.4285153 L4.58789979,15.4285153 C3.21444954,15.4285153 2.09669641,14.2748738 2.09669641,12.8570961 C2.09669641,11.4385984 3.21444954,10.2856769 4.58789979,10.2856769 L7.2217993,10.2856769 C7.56438958,11.2835933 8.48713132,12 9.57030654,12 C10.6534818,12 11.5763232,11.2835933 11.9188138,10.2856769 L13.7223454,10.2856769 C16.0117613,10.2856769 17.8743842,8.36318102 17.8743842,6.00004675 C17.8743842,3.63691249 16.0117613,1.71431377 13.7223454,1.71431377 L5.69080535,1.71431377 C5.34801576,0.716397395 4.42487544,0 3.3422981,0 C1.96805067,0 0.851094722,1.15292152 0.851094722,2.57141922 C0.851094722,3.98919692 1.96805067,5.14283844 3.3422981,5.14283844 C4.42467614,5.14283844 5.34781647,4.42613248 5.69060605,3.42862753 L13.7223454,3.42862753 C15.0957956,3.42862753 16.2135488,4.58226905 16.2135488,6.00004675 C16.2135488,7.41854445 15.0957956,8.57146597 13.7223454,8.57146597 L11.9188138,8.57146597 C11.5763232,7.5735496 10.6534818,6.85715221 9.57030654,6.85715221 C8.48713132,6.85715221 7.56438958,7.5735496 7.2217993,8.57146597 L4.58789979,8.57146597 C2.29848388,8.57146597 0.435960591,10.4939618 0.435960591,12.8570961 C0.435960591,15.2202304 2.29848388,17.1428291 4.58789979,17.1428291 L12.6196391,17.1428291 C12.9625284,18.1404369 13.885569,18.8571429 14.9679471,18.8571429 C16.3413973,18.8571429 17.4591505,17.7033985 17.4591505,16.2857236 C17.4591505,14.8679459 16.3413973,13.7143044 14.9679471,13.7143044" id="Fill-1"></path>
                            </g>
                        </g>
                    </g>
                </g>
            </g>
        </g>
    </g>
</svg>
