<?xml version="1.0" encoding="UTF-8"?>
<svg width="19px" height="20px" viewBox="0 0 19 20" version="1.1" xmlns="http://www.w3.org/2000/svg" xmlns:xlink="http://www.w3.org/1999/xlink">
    <!-- Generator: Sketch 53 (72520) - https://sketchapp.com -->
    <title>peizhi</title>
    <desc>Created with Sketch.</desc>
    <defs>
        <polygon id="path-1"  fill="#72E8F4" points="0 0 18.8751639 0 18.8751639 19.2272727 0 19.2272727"></polygon>
    </defs>
    <g id="Page-1" stroke="none" stroke-width="1" fill="none" fill-rule="evenodd">
        <g id="公文处理-icon" transform="translate(-343.000000, -654.000000)">
            <g id="菜单" transform="translate(320.000000, 0.000000)">
                <g id="业务配置" transform="translate(0.000000, 629.000000)">
                    <g id="分组" transform="translate(23.000000, 25.000000)">
                        <g id="peizhi">
                            <path d="M9.43639318,8.06817273 C8.48380227,8.06817273 7.70912045,8.80208182 7.70912045,9.70453636 C7.70912045,10.6069909 8.48380227,11.3409 9.43639318,11.3409 C10.3889841,11.3409 11.1636659,10.6069909 11.1636659,9.70453636 C11.1636659,8.80208182 10.3889841,8.06817273 9.43639318,8.06817273 M9.43639318,12.9772636 C7.53164318,12.9772636 5.98184773,11.5090364 5.98184773,9.70453636 C5.98184773,7.90003636 7.53164318,6.43180909 9.43639318,6.43180909 C11.3411432,6.43180909 12.8909386,7.90003636 12.8909386,9.70453636 C12.8909386,11.5090364 11.3411432,12.9772636 9.43639318,12.9772636" id="Fill-1" fill="#9CCBFF"></path>
                            <mask id="mask-2" fill="white">
                                <use xlink:href="#path-1"></use>
                            </mask>
                            <g id="Clip-4"></g>
                            <path d="M8.14219091,17.5909091 L10.7331,17.5909091 L10.7331,15.5405455 L11.3471455,15.3650455 C12.1028273,15.1486364 12.8226682,14.8005 13.4285091,14.3578636 L13.9268273,13.9941818 L15.3630545,14.9293636 L16.8597364,12.9080455 L15.4792136,11.9908636 L15.6787136,11.4140455 C15.8950545,10.7897727 16.0047364,10.1458636 16.0047364,9.50031818 C16.0047364,8.85272727 15.8946227,8.20718182 15.6769864,7.58209091 L15.4774864,7.00936364 L16.9771909,5.99768182 L15.4701455,3.99313636 L13.9233727,5.00318182 L13.4241909,4.63990909 C12.8179182,4.19809091 12.0998045,3.85077273 11.3475773,3.636 L10.7331,3.4605 L10.7331,1.63636364 L8.14219091,1.63636364 L8.14219091,3.45477273 L7.53548636,3.63395455 C6.8096,3.84790909 6.13682727,4.19113636 5.47830455,4.68368182 L4.97048636,5.06331818 L3.37016818,3.98659091 L1.89680455,5.98827273 L3.54073636,7.07645455 L3.34944091,7.64959091 C3.14994091,8.24686364 3.04889545,8.8695 3.04889545,9.49990909 C3.04889545,10.1532273 3.16289545,10.8069545 3.38700909,11.4439091 L3.5891,12.0178636 L2.07730455,13.0381364 L3.57700909,15.0324545 L5.04950909,14.0048182 L5.56423636,14.3770909 C6.24391818,14.8684091 6.84846364,15.1727727 7.52512273,15.3642273 L8.14219091,15.5380909 L8.14219091,17.5909091 Z M11.2547364,19.2272727 L7.80019091,19.2272727 C6.94087273,19.2272727 6.41491818,18.2503636 6.41491818,17.7181364 L6.41491818,16.7289545 C5.94985,16.5522273 5.50464545,16.3272273 5.04735,16.0384091 L4.24244091,16.6000909 C3.65387273,16.9985455 2.82348636,16.8516818 2.42405455,16.3202727 L0.419986364,13.6546364 C0.00544090909,13.1035909 0.141895455,12.3357273 0.722690909,11.943 L1.56689545,11.3735455 C1.4041,10.7562273 1.32162273,10.1282727 1.32162273,9.49990909 C1.32162273,8.90631818 1.39244091,8.31763636 1.53278182,7.74368182 L0.556009091,7.09690909 C0.273168182,6.90954545 0.0840318182,6.63013636 0.0214181818,6.30981818 C-0.0411954545,5.98459091 0.0343727273,5.65690909 0.234304545,5.3865 L2.20685,2.70654545 C2.60671364,2.16818182 3.4371,2.0295 4.00105455,2.40381818 L4.93507727,3.03259091 C5.41353182,2.72454545 5.90321364,2.47418182 6.41491818,2.277 L6.41491818,0.982636364 L6.55655455,0.7785 C6.75778182,0.487636364 7.18700909,0 7.80019091,0 L11.2547364,0 C12.0324409,0 12.4603727,0.435681818 12.4603727,1.22727273 L12.4603727,2.27004545 C12.9850318,2.46354545 13.4893955,2.70818182 13.9561909,2.99413636 L14.8340773,2.421 C15.0435091,2.27945455 15.3038955,2.2005 15.5746455,2.2005 C15.9930773,2.2005 16.3877591,2.39318182 16.6300091,2.71595455 L18.6345091,5.38159091 C18.8353045,5.64790909 18.9143273,5.97354545 18.8568955,6.29713636 C18.7998955,6.62072727 18.6124864,6.90381818 18.3300773,7.09363636 L17.4953727,7.65695455 C17.6525545,8.26240909 17.7320091,8.88013636 17.7320091,9.50031818 C17.7320091,10.1164091 17.6534182,10.7308636 17.4983955,11.3338636 L18.2065773,11.8043182 C18.7895318,12.1905 18.9316,12.9571364 18.5222364,13.5126818 L16.5354409,16.1950909 C16.2940545,16.5223636 15.8941909,16.7183182 15.4666909,16.7183182 C15.1976682,16.7183182 14.9394409,16.6414091 14.7205091,16.4965909 L13.9622364,16.0028182 C13.4941455,16.2904091 12.9876227,16.5354545 12.4603727,16.7301818 L12.4603727,17.7181364 C12.4603727,18.468 12.0462591,19.2272727 11.2547364,19.2272727 L11.2547364,19.2272727 Z" id="Fill-3" fill="#9CCBFF" mask="url(#mask-2)"></path>
                        </g>
                    </g>
                </g>
            </g>
        </g>
    </g>
</svg>
