<?xml version="1.0" encoding="UTF-8"?>
<svg width="20px" height="20px" viewBox="0 0 20 20" version="1.1" xmlns="http://www.w3.org/2000/svg" xmlns:xlink="http://www.w3.org/1999/xlink">
    <title>piban01</title>
    <g id="页面-1" stroke="none" stroke-width="1" fill="none" fill-rule="evenodd">
        <g id="请销假V2.0-我要请假" transform="translate(-25.000000, -235.000000)" fill="#72E8F4">
            <g id="来文阅件" transform="translate(0.000000, 209.000000)">
                <g id="piban01" transform="translate(25.000000, 26.000000)">
                    <polygon id="Fill-1" points="12.312 16.8774426 10.279541 14.8436721 8.81167213 16.3108852 12.312 19.8118689 19.2716721 12.8527432 17.8045683 11.3848743"></polygon>
                    <path d="M8.45468852,18.2993989 C8.42059016,18.218306 8.34113661,18.1654098 8.25315847,18.1654098 L1.83446995,18.1654098 L1.83446995,1.83448087 L15.3708634,1.83448087 L15.3708634,8.74224044 C15.3708634,8.84027322 15.436,8.92628415 15.5305355,8.95273224 L16.9279126,9.34398907 C16.9937049,9.36256831 17.0644153,9.34901639 17.1189508,9.30770492 C17.173377,9.26639344 17.2053989,9.20191257 17.2053989,9.13349727 L17.2053989,0.21863388 C17.2053989,0.0978688525 17.1074754,5.46448086e-05 16.9868197,5.46448086e-05 L0.218622951,5.46448086e-05 C0.0978579235,5.46448086e-05 4.37158469e-05,0.0978688525 4.37158469e-05,0.21863388 L4.37158469e-05,19.7814754 C4.37158469e-05,19.9021311 0.0978579235,20.0000546 0.218622951,20.0000546 L8.84004372,20.0000546 C8.91326776,20.0000546 8.98157377,19.9634426 9.02212022,19.902459 C9.06255738,19.8413661 9.06998907,19.7642077 9.04157377,19.696776 L8.45468852,18.2993989 Z" id="Fill-2"></path>
                    <path d="M5.08816187,11.8951257 C4.99214518,11.8951257 4.91421858,11.9930492 4.91421858,12.1137049 L4.91421858,13.5109727 C4.91421858,13.6317377 4.99214518,13.7295519 5.08816187,13.7295519 L8.74027528,13.7295519 C8.83637895,13.7295519 8.91421858,13.6317377 8.91421858,13.5109727 L8.91421858,12.1137049 C8.91421858,11.9930492 8.83637895,11.8951257 8.74027528,11.8951257 L5.08816187,11.8951257 Z" id="Fill-4"></path>
                    <path d="M12.2911585,10.1462732 L12.2911585,8.74900546 C12.2911585,8.62824044 12.193235,8.53042623 12.0725792,8.53042623 L5.13279781,8.53042623 C5.01214208,8.53042623 4.91421858,8.62824044 4.91421858,8.74900546 L4.91421858,10.1462732 C4.91421858,10.266929 5.01214208,10.3648525 5.13279781,10.3648525 L12.0725792,10.3648525 C12.193235,10.3648525 12.2911585,10.266929 12.2911585,10.1462732" id="Fill-6"></path>
                    <path d="M12.2911585,5.38427322 C12.2911585,5.26361749 12.193235,5.16569399 12.0725792,5.16569399 L5.13279781,5.16569399 C5.01214208,5.16569399 4.91421858,5.26361749 4.91421858,5.38427322 L4.91421858,6.78154098 C4.91421858,6.90230601 5.01214208,7.00012022 5.13279781,7.00012022 L12.0725792,7.00012022 C12.193235,7.00012022 12.2911585,6.90230601 12.2911585,6.78154098 L12.2911585,5.38427322 Z" id="Fill-8"></path>
                </g>
            </g>
        </g>
    </g>
</svg>
