<?xml version="1.0" encoding="UTF-8"?>
<svg width="16px" height="16px" viewBox="0 0 16 16" version="1.1" xmlns="http://www.w3.org/2000/svg" xmlns:xlink="http://www.w3.org/1999/xlink">
    <title>shangchuang</title>
    <g id="页面-1" stroke="none" stroke-width="1" fill="none" fill-rule="evenodd">
        <g id="请假申请-弹框" transform="translate(-1420.000000, -792.000000)">
            <g id="弹框2" transform="translate(460.000000, 100.000000)">
                <g id="shangchuang" transform="translate(960.000000, 692.000000)">
                    <circle id="椭圆形" fill="#00A2FF" cx="8" cy="8" r="8"></circle>
                    <path d="M4.8,8.87804878 L7.2,8.87804878 L7.2,11.2195122 C7.2,11.6503415 7.5584,12 8,12 C8.4416,12 8.8,11.6503415 8.8,11.2195122 L8.8,8.87804878 L11.2,8.87804878 C11.6416,8.87804878 12,8.52839024 12,8.09756098 C12,7.66673171 11.6416,7.31707317 11.2,7.31707317 L8.8,7.31707317 L8.8,4.7804878 C8.8,4.34965854 8.4416,4 8,4 C7.5584,4 7.2,4.34965854 7.2,4.7804878 L7.2,7.31707317 L4.8,7.31707317 C4.3584,7.31707317 4,7.66673171 4,8.09756098 C4,8.52839024 4.3584,8.87804878 4.8,8.87804878" id="Fill-3" fill="#FFFFFF"></path>
                </g>
            </g>
        </g>
    </g>
</svg>
