<?xml version="1.0" encoding="UTF-8"?>
<svg width="19px" height="22px" viewBox="0 0 19 22" version="1.1" xmlns="http://www.w3.org/2000/svg" xmlns:xlink="http://www.w3.org/1999/xlink">
    <title>shanchu01</title>
    <g id="页面-1" stroke="none" stroke-width="1" fill="none" fill-rule="evenodd" stroke-linecap="round">
        <g id="请销假V2.0-我要请假" transform="translate(-1810.000000, -282.000000)" stroke="#666666" stroke-width="1.2">
            <g id="表单" transform="translate(200.000000, 80.000000)">
                <g id="表单" transform="translate(20.000000, 90.000000)">
                    <g id="文字" transform="translate(61.000000, 13.000000)">
                        <g id="icon" transform="translate(1499.000000, 43.000000)">
                            <g id="shanchu01" transform="translate(31.000000, 57.000000)">
                                <path d="M13.3509545,20 L4.37640909,20 C2.61913636,20 1.36368182,18.3481818 1.36368182,16.5909091 L1.36368182,4.13 C1.36368182,3.62818182 1.60140909,3.63636364 2.10368182,3.63636364 L15.1691364,3.63636364 C15.6714091,3.63636364 15.9091364,3.62818182 15.9091364,4.13 L15.9091364,17.0454545 C15.9091364,18.5518182 14.8573182,20 13.3509545,20 L13.3509545,20 Z" id="Stroke-262"></path>
                                <line x1="0" y1="3.63636364" x2="17.2727273" y2="3.63636364" id="Stroke-264"></line>
                                <path d="M11.8181818,2.72727273 C11.8181818,2.97818182 11.6145455,3.18181818 11.3636364,3.18181818 L5.90909091,3.18181818 C5.65818182,3.18181818 5.45454545,2.97818182 5.45454545,2.72727273 L5.45454545,0.454545455 C5.45454545,0.203636364 5.65818182,0 5.90909091,0 L11.3636364,0 C11.6145455,0 11.8181818,0.203636364 11.8181818,0.454545455 L11.8181818,2.72727273 L11.8181818,2.72727273 Z" id="Stroke-266"></path>
                                <line x1="5" y1="7.72727273" x2="5" y2="15.9090909" id="Stroke-268"></line>
                                <line x1="8.63636364" y1="7.72727273" x2="8.63636364" y2="15.9090909" id="Stroke-270"></line>
                                <line x1="12.2727273" y1="7.72727273" x2="12.2727273" y2="15.9090909" id="Stroke-272"></line>
                            </g>
                        </g>
                    </g>
                </g>
            </g>
        </g>
    </g>
</svg>
