<?xml version="1.0" encoding="UTF-8"?>
<svg width="17px" height="17px" viewBox="0 0 17 17" version="1.1" xmlns="http://www.w3.org/2000/svg" xmlns:xlink="http://www.w3.org/1999/xlink">
    <title>sousuoye</title>
    <g id="页面-1" stroke="none" stroke-width="1" fill="none" fill-rule="evenodd">
        <g id="请销假V2.0-我要销假" transform="translate(-25.000000, -376.000000)" fill="#FF920C">
            <g id="他人公文包" transform="translate(0.000000, 349.000000)">
                <g id="sousuoye" transform="translate(25.000000, 27.000000)">
                    <path d="M1.54545455,6.99240909 C1.54545455,3.98881818 4.02204545,1.54545455 7.06620455,1.54545455 C10.1103636,1.54545455 12.5869545,3.98881818 12.5869545,6.99240909 C12.5869545,9.99561364 10.1103636,12.4393636 7.06620455,12.4393636 C4.02204545,12.4393636 1.54545455,9.99561364 1.54545455,6.99240909 M16.0089773,15.6886818 L12.2075455,11.7744318 C13.3971591,10.5226136 14.1324091,8.84270455 14.1324091,6.99240909 C14.1324091,3.13688636 10.9626818,0 7.06620455,0 C3.17011364,0 2.11386464e-13,3.13688636 2.11386464e-13,6.99240909 C2.11386464e-13,10.8479318 3.17011364,13.9848182 7.06620455,13.9848182 C8.53361364,13.9848182 9.89747727,13.5389545 11.0283636,12.7785909 L14.9001136,16.7654773 C15.0519545,16.9215682 15.25325,17 15.4545455,17 C15.6485,17 15.8428409,16.9273636 15.9931364,16.7813182 C16.2991364,16.4842045 16.3060909,15.9950682 16.0089773,15.6886818" id="sousuo"></path>
                </g>
            </g>
        </g>
    </g>
</svg>