<?xml version="1.0" encoding="UTF-8"?>
<svg width="17px" height="17px" viewBox="0 0 17 17" version="1.1" xmlns="http://www.w3.org/2000/svg" xmlns:xlink="http://www.w3.org/1999/xlink">
    <title>sousuo01</title>
    <g id="页面-1" stroke="none" stroke-width="1" fill="none" fill-rule="evenodd">
        <g id="请销假V2.0-我要请假" transform="translate(-25.000000, -376.000000)" fill="#72E8F4">
            <g id="他人公文包" transform="translate(0.000000, 349.000000)">
                <path d="M26.5454545,33.9924091 C26.5454545,30.9888182 29.0220455,28.5454545 32.0662045,28.5454545 C35.1103636,28.5454545 37.5869545,30.9888182 37.5869545,33.9924091 C37.5869545,36.9956136 35.1103636,39.4393636 32.0662045,39.4393636 C29.0220455,39.4393636 26.5454545,36.9956136 26.5454545,33.9924091 M41.0089773,42.6886818 L37.2075455,38.7744318 C38.3971591,37.5226136 39.1324091,35.8427045 39.1324091,33.9924091 C39.1324091,30.1368864 35.9626818,27 32.0662045,27 C28.1701136,27 25,30.1368864 25,33.9924091 C25,37.8479318 28.1701136,40.9848182 32.0662045,40.9848182 C33.5336136,40.9848182 34.8974773,40.5389545 36.0283636,39.7785909 L39.9001136,43.7654773 C40.0519545,43.9215682 40.25325,44 40.4545455,44 C40.6485,44 40.8428409,43.9273636 40.9931364,43.7813182 C41.2991364,43.4842045 41.3060909,42.9950682 41.0089773,42.6886818" id="sousuo01"></path>
            </g>
        </g>
    </g>
</svg>
