<?xml version="1.0" encoding="UTF-8"?>
<svg width="20px" height="21px" viewBox="0 0 20 21" version="1.1" xmlns="http://www.w3.org/2000/svg" xmlns:xlink="http://www.w3.org/1999/xlink">
    <title>spgw</title>
    <g id="页面-1" stroke="none" stroke-width="1" fill="none" fill-rule="evenodd">
        <g id="请销假V2.0-我要审批" transform="translate(-24.000000, -305.000000)" fill="#FF920C">
            <g id="菜单" transform="translate(-39.000000, -144.000000)">
                <g id="我的办公" transform="translate(39.000000, 423.000000)">
                    <g id="spgw" transform="translate(24.000000, 26.000000)">
                        <path d="M8.48327114,18.3612634 C8.4490575,18.2798963 8.36933534,18.2268213 8.28105977,18.2268213 L1.8406717,18.2268213 L1.8406717,1.84068267 L15.4228274,1.84068267 L15.4228274,8.77179517 C15.4228274,8.87015938 15.4881842,8.95646108 15.5830393,8.98299858 L16.9851405,9.37557813 C17.0511552,9.39422017 17.1221047,9.38062244 17.1768245,9.33917131 C17.2314348,9.29772017 17.2635649,9.23302131 17.2635649,9.16437472 L17.2635649,0.219373011 C17.2635649,0.0981997159 17.1653103,5.48295455e-05 17.0442467,5.48295455e-05 L0.219362045,5.48295455e-05 C0.09818875,5.48295455e-05 4.38636364e-05,0.0981997159 4.38636364e-05,0.219373011 L4.38636364e-05,19.8483503 C4.38636364e-05,19.9694139 0.09818875,20.0676685 0.219362045,20.0676685 L8.86992909,20.0676685 C8.94340068,20.0676685 9.01193761,20.0309327 9.05262114,19.9697429 C9.093195,19.9084435 9.10065182,19.8310241 9.07214045,19.7633645 L8.48327114,18.3612634 Z" id="Fill-1"></path>
                        <path d="M4.00496932,14.4412689 C3.88390568,14.4412689 3.78565114,14.5395234 3.78565114,14.660587 L3.78565114,16.0625785 C3.78565114,16.1837518 3.88390568,16.2818967 4.00496932,16.2818967 L6.41648239,16.2818967 C6.53765568,16.2818967 6.63580057,16.1837518 6.63580057,16.0625785 L6.63580057,14.660587 C6.63580057,14.5395234 6.53765568,14.4412689 6.41648239,14.4412689 L4.00496932,14.4412689 Z" id="Fill-3"></path>
                        <path d="M7.89753807,13.258464 L7.89753807,11.8564725 C7.89753807,11.7352992 7.79928352,11.6371543 7.67821989,11.6371543 L4.00496932,11.6371543 C3.88379602,11.6371543 3.78565114,11.7352992 3.78565114,11.8564725 L3.78565114,13.258464 C3.78565114,13.3795276 3.88379602,13.4777822 4.00496932,13.4777822 L7.67821989,13.4777822 C7.79928352,13.4777822 7.89753807,13.3795276 7.89753807,13.258464" id="Fill-5"></path>
                        <path d="M11.9945552,5.58276625 C11.9717461,5.51390034 11.9163683,5.46082534 11.8466251,5.44086739 L9.97902114,4.90726625 L8.91236716,3.3071208 C8.87168364,3.24604068 8.80325636,3.20941455 8.72989443,3.20941455 C8.6565325,3.20941455 8.58810523,3.24604068 8.5474217,3.3071208 L7.48065807,4.90726625 L5.61316375,5.44086739 C5.54210466,5.46115432 5.4859592,5.51598386 5.46402739,5.58660432 C5.44209557,5.65711511 5.45711886,5.7340958 5.50405295,5.79111852 L6.74714841,7.30057591 L6.65832455,9.25404295 C6.65503477,9.32674693 6.68804216,9.39638045 6.74660011,9.43991511 C6.80493875,9.48334011 6.88126148,9.49496398 6.94990807,9.47094864 L8.73164898,8.84742705 L10.6056132,9.47204523 C10.6283126,9.4796117 10.6517797,9.48323656 10.6750274,9.48323656 C10.7220711,9.48323656 10.7686763,9.4680975 10.8072763,9.43892818 C10.8648473,9.39539352 10.897416,9.32619864 10.8941263,9.25404295 L10.8050831,7.29607989 L11.9605609,5.78497761 C12.0046439,5.72729693 12.0173643,5.65163216 11.9945552,5.58276625" id="Fill-7"></path>
                        <path d="M11.9929761,18.2313722 L17.4004852,18.2313722 L17.4004852,17.3300841 L11.9929761,17.3300841 L11.9929761,18.2313722 Z M14.6967307,14.2658801 L15.4177392,15.5276176 L13.9757222,15.5276176 L14.6967307,14.2658801 Z M17.2202057,15.5276176 L15.9584682,13.3647017 C16.3189176,13.0041426 16.4991972,12.4634136 16.4991972,11.9226847 C16.4991972,10.8412267 15.7781886,10.1202182 14.6967307,10.1202182 C13.6152727,10.1202182 12.8942642,10.8412267 12.8942642,11.9226847 C12.8942642,12.4634136 13.0744341,13.0041426 13.4349932,13.3647017 L12.1732557,15.5276176 L10.1905097,15.5276176 L10.1905097,20.0338386 L19.2029517,20.0338386 L19.2029517,15.5276176 L17.2202057,15.5276176 Z" id="Fill-9"></path>
                    </g>
                </g>
            </g>
        </g>
    </g>
</svg>
