<?xml version="1.0" encoding="UTF-8"?>
<svg width="16px" height="16px" viewBox="0 0 16 16" version="1.1" xmlns="http://www.w3.org/2000/svg" xmlns:xlink="http://www.w3.org/1999/xlink">
    <!-- Generator: Sketch 53 (72520) - https://sketchapp.com -->
    <title>tishi</title>
    <desc>Created with Sketch.</desc>
    <g id="Page-1" stroke="none" stroke-width="1" fill="none" fill-rule="evenodd">
        <g id="公文处理-公文阅知-工作数据" transform="translate(-413.000000, -34.000000)">
            <g id="头部tab" transform="translate(238.000000, 9.000000)">
                <g id="分组-4" transform="translate(155.000000, 0.000000)">
                    <g id="tishi" transform="translate(20.000000, 25.000000)">
                        <circle id="椭圆形" fill="#0071FE" cx="8" cy="8" r="8"></circle>
                        <path d="M8.88409091,3.26679842 C9.07440711,3.4437747 9.17045455,3.64832016 9.17045455,3.87954545 C9.17045455,4.09743083 9.0708498,4.29219368 8.87341897,4.46294466 C8.67598814,4.63369565 8.45454545,4.71907115 8.20909091,4.71907115 C7.97697628,4.71907115 7.77954545,4.63725296 7.61590909,4.47272727 C7.45227273,4.30998024 7.37045455,4.11166008 7.37045455,3.87954545 C7.37045455,3.64832016 7.45849802,3.4437747 7.63636364,3.26679842 C7.81333992,3.08982213 8.01788538,3 8.25,3 C8.4812253,3 8.69288538,3.08982213 8.88409091,3.26679842 Z M10.5,12.7274704 C10.2812253,12.7034585 9.98863636,12.6847826 9.62045455,12.6732213 C9.25227273,12.6616601 8.7951581,12.6554348 8.25,12.6554348 C7.70395257,12.6554348 7.24772727,12.6616601 6.87954545,12.6732213 C6.51136364,12.6847826 6.21788538,12.7034585 6,12.7274704 L6,12.4384387 L7.14545455,12.2401186 C7.56788538,12.168083 7.77954545,11.951087 7.77954545,11.5900198 L7.77954545,7.96156126 C7.77954545,7.67341897 7.69772727,7.46264822 7.53409091,7.33013834 C7.37045455,7.19762846 7.04318182,7.08379447 6.55227273,6.98774704 L6.55227273,6.73517787 C7.51986166,6.51818182 8.22954545,6.08507905 8.67954545,5.43498024 L9.00681818,5.43498024 L9.00681818,11.6442688 C9.00681818,11.8248024 9.03705534,11.9573123 9.0993083,12.0409091 C9.15978261,12.1253953 9.27895257,12.1858696 9.45681818,12.222332 L10.5,12.4384387 L10.5,12.7274704 Z" id="Fill-1" fill="#FFFFFF"></path>
                    </g>
                </g>
            </g>
        </g>
    </g>
</svg>