<?xml version="1.0" encoding="utf-8"?>
<svg version="1.1" xmlns:xlink="http://www.w3.org/1999/xlink" width="18px" height="17px" xmlns="http://www.w3.org/2000/svg">
  <g transform="matrix(1 0 0 1 -1862 -305 )">
    <path d="M 16.5624085281966 15.1525823095196  C 17.305722186951 15.4988250619397  17.8407643857645 16.1913105667799  17.9915816498596 17  L 0.00841835014041222 17  C 0.159235614235501 16.1913105667799  0.694277813049031 15.4988250619397  1.4375914718034 15.1561518224311  L 2.88471902966818 14.4850833950602  L 3.01040008308075 14.4244016755638  L 4.9458883056344 13.5284539347654  C 5.9154278605314 13.0786953079104  6.58333288723822 12.1756085412889  6.73415015133331 11.1154632065592  C 6.75928636201582 10.9655436642742  6.7700590237369 10.8227631478123  6.7700590237369 10.683552144262  L 6.7700590237369 10.1302776429721  C 6.7700590237369 9.28073357002375  6.42533384866241 8.60609562974126  5.82565567952241 7.89576256034329  C 4.91716120771152 6.82490868687901  4.28875594064865 5.57557916783735  4.41084610682087 4.17276059359914  C 4.60475401780027 1.95252356261654  6.43610651038349 0.164197593931189  8.67322926112731 0.0107085387346428  C 8.72350168249234 0.0071390258230952  8.77377410385737 0.0035695129115476  8.82763741246276 0.0035695129115476  L 8.84559184866455 0.0035695129115476  C 8.89586427002958 0  8.94972757863497 0  8.99640911275964 0  C 9.04309064688431 0  9.0969539554897 0  9.14722637685473 0.0035695129115476  L 9.16518081305653 0.0035695129115476  C 9.21904412166192 0.0071390258230952  9.2729074302673 0.0107085387346428  9.31958896439197 0.0107085387346428  C 11.5603026023762 0.164197593931189  13.388064207719 1.95252356261654  13.5819721186984 4.16919108068759  C 13.7040622848706 5.5720096549258  13.0900205667692 6.8320477127021  12.1671625459969 7.89219304743174  C 11.5243937299726 8.62751270721054  11.2227592017824 9.27359454420066  11.2227592017824 10.1267081300605  L 11.2227592017824 10.6799826313504  C 11.2227592017824 10.8156241219892  11.2335318635035 10.9619741513627  11.258668074186 11.1118936936477  C 11.4094853382811 12.1756085412889  12.0773903649879 13.0751257949989  13.0505208071252 13.5248844218538  L 14.9824181424385 14.4172626497407  L 14.9824181424385 14.4208321626523  L 16.5624085281966 15.1525823095196  Z " fill-rule="nonzero" fill="#f13b32" stroke="none" fill-opacity="0.988235294117647" transform="matrix(1 0 0 1 1862 305 )" />
  </g>
</svg>