<?xml version="1.0" encoding="utf-8"?>
<svg version="1.1" xmlns:xlink="http://www.w3.org/1999/xlink" width="18px" height="19px" xmlns="http://www.w3.org/2000/svg">
  <defs>
    <mask fill="white" id="clip8">
      <path d="M 17.0229631959736 18.1469015413652  L 0.980182447310475 18.1469015413652  C 0.706511481597987 18.1469015413652  0.445423089021705 18.0273670965713  0.259830135262661 17.8260459263919  C 0.111984900912236 17.6593268323372  0.0270525322428433 17.4454230890217  0.0176156023906886 17.2252280591381  L 0.0176156023906886 17.1748977665933  C 0.0176156023906886 17.1402956904687  0.0207612456747401 17.1056936143441  0.0239068889587917 17.0710915382196  C 0.0301981755268949 17.0113243158226  0.0427807486631013 16.9515570934256  0.052217678515256 16.8854985844605  C 0.244101918842403 15.815979867883  0.939289084617804 14.9068889587921  1.9144385026738 14.4570619691727  L 4.99087763447625 13.0257942749292  C 5.20163573450771 12.9282793331236  5.39666561811891 12.7804340987732  5.55080213903743 12.6042780748663  L 5.5916955017301 12.5539477823215  C 5.69235608681975 12.4249764076754  5.7741428122051 12.283422459893  5.83705567788613 12.1324315822586  C 5.91884240327147 11.9342560553633  5.95973576596414 11.7234979553319  5.95973576596414 11.5064485687323  L 5.95973576596414 11.0188738597043  C 5.95973576596414 10.5910663730733  5.78987102862535 10.2041522491349  5.42812205095942 9.79207297892419  C 4.4026423403586 8.63447625039321  3.88046555520604 7.40138408304498  3.88046555520604 6.12425290972004  C 3.88046555520604 4.71185907518087  4.47184649260774 3.34979553318654  5.50676313306071 2.38093740169865  C 6.31204781377792 1.62598301352627  7.31550802139037 1.16042780748663  8.40390059767222 1.03460207612457  C 8.42906574394464 1.03145643284052  8.4573765335011 1.02831078955646  8.48254167977351 1.02831078955646  L 8.49826989619377 1.02516514627241  C 8.50456118276187 1.02516514627241  8.51085246932998 1.02201950298836  8.51714375589808 1.02201950298836  C 8.55803711859075 1.01572821642026  8.59893048128342 1.01572821642026  8.64296948726014 1.01258257313621  C 8.67442592010066 1.00943692985215  8.70902799622523 1.0062912865681  8.74048442906575 1.0062912865681  C 8.756212645486 1.0062912865681  8.77194086190626 1.00314564328405  8.78766907832652 1.00314564328405  L 8.79396036489462 1.00314564328405  C 8.81283422459893 1.00314564328405  8.82541679773514 1  8.84429065743945 1  C 8.86316451714376 1  8.87889273356402 1  8.89776659326832 0.996854356715948  L 9.10537905001573 0.996854356715948  C 9.12425290972004 0.996854356715948  9.1399811261403 0.996854356715948  9.15885498584461 1  C 9.17772884554892 1  9.19031141868512 1  9.20918527838943 1.00314564328405  L 9.21547656495754 1.00314564328405  C 9.23120478137779 1.00314564328405  9.24693299779805 1.00314564328405  9.26266121421831 1.0062912865681  C 9.29411764705883 1.00943692985215  9.32871972318339 1.00943692985215  9.35703051273986 1.01258257313621  C 9.40106951871658 1.01572821642026  9.44196288140925 1.01887385970431  9.48285624410192 1.02201950298836  C 9.48914753067002 1.02201950298836  9.49543881723813 1.02201950298836  9.50173010380623 1.02516514627241  L 9.51745832022649 1.02831078955646  C 9.5426234664989 1.03145643284052  9.57093425605536 1.03460207612457  9.59609940232778 1.03460207612457  C 10.6876376218937 1.16042780748663  11.6910978295061 1.62598301352627  12.4963825102233 2.3777917584146  C 13.5312991506763 3.34664988990249  14.122680088078 4.71185907518087  14.122680088078 6.12110726643599  C 14.122680088078 7.34790814721611  13.631959735766 8.51494180559925  12.5781692356087 9.78578169235609  C 12.2038376848065 10.2356086819755  12.0434098773199 10.6036489462095  12.0434098773199 11.0125825731362  L 12.0434098773199 11.5001572821642  C 12.0434098773199 11.7172066687638  12.0843032400126 11.9279647687952  12.1660899653979 12.1292859389745  C 12.229002831079 12.2771311733249  12.3107895564643 12.4218307643913  12.4114501415539 12.5476564957534  L 12.4523435042466 12.5979867882982  C 12.6064800251651 12.7772884554891  12.7983642654923 12.9219880465555  13.0122680088078 13.0195029883611  L 16.0887071406103 14.4507706826046  C 17.0638565586662 14.903743315508  17.7558980811576 15.8096885813149  17.9509279647688 16.8792072978924  C 17.963510537905 16.9452658068575  17.9698018244731 17.0050330292545  17.9792387543253 17.0648002516515  C 17.9855300408934 17.096256684492  17.9855300408934 17.1340044039006  17.9855300408934 17.1686064800252  L 17.9855300408934 17.21893677257  C 17.9792387543253 17.4391318024536  17.8911607423718 17.6530355457691  17.7433155080214 17.8166089965398  C 17.5608681975464 18.0305127398553  17.2997798049701 18.1469015413652  17.0229631959736 18.1469015413652  Z M 9.01415539477823 1.27367096571249  L 9.00157282164203 1.27996225228059  L 8.90405787983643 1.27996225228059  C 8.88518402013212 1.27996225228059  8.86945580371186 1.27996225228059  8.8537275872916 1.28310789556464  C 8.83799937087134 1.28310789556464  8.82227115445108 1.28310789556464  8.80654293803082 1.28625353884869  L 8.80025165146272 1.28625353884869  C 8.78452343504246 1.28625353884869  8.76879521862221 1.28625353884869  8.756212645486 1.28939918213275  C 8.72475621264548 1.2925448254168  8.69329977980497 1.2925448254168  8.66184334696445 1.29569046870085  C 8.62094998427178 1.2988361119849  8.58320226486316 1.30198175526895  8.54230890217049 1.305127398553  L 8.51085246932998 1.30827304183706  L 8.43535703051274 1.31456432840516  C 7.40358603334382 1.43409877319912  6.45360176156024 1.87448883296634  5.69235608681976 2.585404215162  C 4.71720666876376 3.50078641082101  4.15413652091853 4.79364580056622  4.15413652091853 6.12739855300409  C 4.15413652091853 7.33217993079585  4.65114815979868 8.50550487574709  5.63258886442278 9.6096256684492  C 6.04152249134948 10.0720352312048  6.23340673167663 10.5187165775401  6.23340673167663 11.0188738597043  L 6.23340673167663 11.5064485687323  C 6.23340673167663 11.7581000314564  6.18622208241585 12.0034602076125  6.08870714061026 12.2393834539163  C 6.01635734507707 12.4155394778232  5.91884240327147 12.5791129285939  5.80245360176156 12.7269581629443  L 5.75841459578484 12.7835797420573  C 5.5791129285939 12.9911921988047  5.35262661214218 13.1642025794275  5.10726643598616 13.2805913809374  L 2.03082730418371 14.7118590751809  C 1.14375589808116 15.1239383453916  0.505190311418685 15.9543881723813  0.329034287511796 16.9358288770053  C 0.319597357659641 16.9955960994023  0.310160427807486 17.0522176785153  0.303869141239383 17.1056936143441  C 0.300723497955332 17.1340044039006  0.300723497955332 17.156023906889  0.300723497955332 17.1811890531614  L 0.300723497955332 17.2157911292859  C 0.307014784523435 17.3730732934885  0.369927650204466 17.524064171123  0.470588235294117 17.643598615917  C 0.602705253224284 17.7882982069833  0.788298206983328 17.8732305756527  0.980182447310475 17.8732305756527  L 17.0261088392576 17.8732305756527  C 17.2211387228688 17.8732305756527  17.4098773199119 17.7914438502674  17.535703051274 17.6404529726329  C 17.6395092796477 17.5209185278389  17.7024221453287 17.3699276502045  17.7055677886128 17.2126454860019  L 17.7055677886128 17.1780434098773  C 17.7055677886128 17.1528782636049  17.7024221453287 17.1277131173325  17.6992765020447 17.1056936143441  C 17.6929852154766 17.0490720352312  17.6835482856244 16.9955960994023  17.6741113557723 16.9358288770053  C 17.4979553318654 15.9543881723813  16.8593897452029 15.1239383453916  15.9691726958163 14.7087134318968  L 12.8927335640138 13.2774457376533  C 12.6473733878578 13.1610569361434  12.4208870714061 12.9911921988047  12.2415854042152 12.7804340987732  L 12.2384397609311 12.7741428122051  L 12.1975463982384 12.7206668763762  C 12.0780119534445 12.5728216420258  11.9836426549229 12.4092481912551  11.9112928593897 12.2362378106323  C 11.8169235608682 12.0003145643284  11.7665932683234 11.7518087448883  11.7665932683234 11.5001572821642  L 11.7665932683234 11.0125825731362  C 11.7665932683234 10.5407360805285  11.9490405787984 10.1066373073293  12.3642654922932 9.6096256684492  C 13.3771626297578 8.39226171752123  13.8458634790815 7.28499528153507  13.8458634790815 6.12110726643599  C 13.8458634790815 4.78420887071406  13.2859389745203 3.49449512425291  12.3076439131802 2.5791129285939  C 11.5463982384398 1.86819754639824  10.5964139666562 1.42780748663102  9.56464296948726 1.30827304183706  L 9.48914753067002 1.30198175526895  L 9.45769109782951 1.2988361119849  C 9.41679773513684 1.29569046870085  9.37590437244416 1.2925448254168  9.33815665303555 1.28939918213275  C 9.30670022019503 1.28625353884869  9.27838943063857 1.28625353884869  9.243787354514 1.28310789556464  C 9.22805913809374 1.28310789556464  9.21233092167348 1.27996225228059  9.19974834853728 1.27996225228059  L 9.19345706196918 1.27996225228059  C 9.17772884554892 1.27996225228059  9.16200062912866 1.27996225228059  9.1462724127084 1.27681660899654  C 9.12739855300409 1.27681660899654  9.11167033658383 1.27681660899654  9.09594212016357 1.27367096571249  L 9.01415539477823 1.27367096571249  Z M 17.0166719094055 17.0301981755269  L 17.0449826989619 17  L 0.958162944322114 17  L 0.989619377162629 17.036489462095  C 1.13117332494495 16.2815350739226  1.6281849638251 15.6398238439761  2.3170808430324 15.3189682290028  L 3.58477508650519 14.7275872916011  L 3.69172695816294 14.6741113557723  L 5.3903743315508 13.8845548914753  C 6.20195029883611 13.5070776973891  6.75558351682919 12.7521233092167  6.88140924819126 11.8650519031142  L 6.88140924819126 11.8587606165461  C 6.90028310789556 11.7360805284681  6.91286568103177 11.6134004403901  6.91286568103177 11.5001572821642  L 6.91286568103177 11.0125825731362  C 6.91286568103177 10.3551431267694  6.6769424347279 9.79521862220824  6.11701793016672 9.13148788927336  C 5.17647058823529 8.01478452343504  4.74866310160428 6.87606165460837  4.84617804340988 5.7499213589179  C 5.01918842403271 3.73041837055678  6.6769424347279 2.10097514941806  8.70588235294118 1.95942120163573  C 8.7499213589179 1.95627555835168  8.79710600817867 1.95312991506763  8.8474363007235 1.95312991506763  L 8.86631016042781 1.95312991506763  C 8.91349480968858 1.94998427178358  8.96067945894935 1.94998427178358  9.00471846492608 1.94998427178358  C 9.0487574709028 1.94998427178358  9.09594212016357 1.94998427178358  9.14312676942435 1.95312991506763  L 9.1588549858446 1.95312991506763  C 9.20918527838943 1.95627555835168  9.25322428436615 1.95942120163573  9.30040893362692 1.95942120163573  C 11.3230575652721 2.10097514941806  12.9839572192513 3.73041837055678  13.1569675998742 5.7499213589179  C 13.2576281849638 6.90437244416483  12.8298206983328 8.04624095627556  11.8861277131173 9.13148788927336  C 11.3230575652721 9.77949040578798  11.0934256055363 10.326832337213  11.0934256055363 11.0094369298522  L 11.0934256055363 11.4970116388802  C 11.0934256055363 11.610254797106  11.1028625353885 11.7297892419  11.1248820383768 11.855614973262  L 11.1248820383768 11.8587606165461  C 11.2475621264549 12.7458320226486  11.804340987732 13.500786410821  12.6159169550173 13.8782636049072  L 14.4340987731991 14.7244416483171  L 14.4340987731991 14.7275872916011  L 15.6892104435357 15.3126769424347  C 16.378106322743 15.633532557408  16.8751179616232 16.2752437873545  17.0166719094055 17.0301981755269  Z M 1.29789241899969 16.9232463038691  L 1.29789241899969 17  L 16.7052532242844 17  C 16.5448254167977 16.3255740798993  16.1296005033029 15.8285624410192  15.5696759987417 15.570619691727  L 14.0566215791129 14.8659955960994  L 14.0566215791129 14.8628499528154  L 12.4932368669393 14.1362063541994  C 11.5967285309846 13.7209814407046  10.9833280905945 12.8842403271469  10.8449197860963 11.9027996225228  C 10.8229002831079 11.7643913180245  10.8103177099717 11.6322743000944  10.8103177099717 11.5033029254483  L 10.8103177099717 11.0157282164203  C 10.8103177099717 10.2576281849638  11.0588235294118 9.66310160427807  11.6722239698018 8.95533186536647  C 12.5655866624725 7.9267065114816  12.9713746461151 6.85718779490406  12.8770053475936 5.77823214847436  C 12.7165775401069 3.89084617804341  11.1657754010695 2.37150047184649  9.27209814407046 2.23938345391633  C 9.23120478137779 2.23623781063227  9.18716577540107 2.23309216734822  9.13998112614029 2.23309216734822  L 9.12425290972003 2.23309216734822  C 9.08021390374331 2.22994652406417  9.03617489776659 2.22994652406417  8.99528153507392 2.22994652406417  C 8.95438817238125 2.22994652406417  8.91349480968858 2.22994652406417  8.8663101604278 2.23309216734822  L 8.85687323057565 2.23309216734822  C 8.81283422459893 2.23623781063227  8.76564957533816 2.23938345391633  8.72475621264548 2.23938345391633  C 6.83107895564643 2.37150047184649  5.28342245989305 3.89399182132746  5.11984900912237 5.77823214847436  C 5.02862535388487 6.82887700534759  5.43441333752753 7.89839572192513  6.32463038691412 8.95533186536647  C 6.92859389745203 9.66939289084618  7.18653664674426 10.2859389745203  7.18653664674426 11.0125825731362  L 7.18653664674426 11.5001572821642  C 7.18653664674426 11.6291286568103  7.17395407360805 11.7643913180245  7.15193457061969 11.8996539792388  C 7.01667190940547 12.8810946838628  6.40012582573136 13.7178357974206  5.50361748977666 14.1330607109154  L 3.80811575967285 14.9226171752123  L 3.7011638880151 14.9760931110412  L 2.43032400125826 15.5674740484429  C 1.87354513998113 15.8285624410192  1.45832022648632 16.3287197231834  1.29789241899969 16.9232463038691  Z " fill-rule="evenodd" />
    </mask>
  </defs>
  <g transform="matrix(1 0 0 1 -1024 -1364 )">
    <path d="M 17.0229631959736 18.1469015413652  L 0.980182447310475 18.1469015413652  C 0.706511481597987 18.1469015413652  0.445423089021705 18.0273670965713  0.259830135262661 17.8260459263919  C 0.111984900912236 17.6593268323372  0.0270525322428433 17.4454230890217  0.0176156023906886 17.2252280591381  L 0.0176156023906886 17.1748977665933  C 0.0176156023906886 17.1402956904687  0.0207612456747401 17.1056936143441  0.0239068889587917 17.0710915382196  C 0.0301981755268949 17.0113243158226  0.0427807486631013 16.9515570934256  0.052217678515256 16.8854985844605  C 0.244101918842403 15.815979867883  0.939289084617804 14.9068889587921  1.9144385026738 14.4570619691727  L 4.99087763447625 13.0257942749292  C 5.20163573450771 12.9282793331236  5.39666561811891 12.7804340987732  5.55080213903743 12.6042780748663  L 5.5916955017301 12.5539477823215  C 5.69235608681975 12.4249764076754  5.7741428122051 12.283422459893  5.83705567788613 12.1324315822586  C 5.91884240327147 11.9342560553633  5.95973576596414 11.7234979553319  5.95973576596414 11.5064485687323  L 5.95973576596414 11.0188738597043  C 5.95973576596414 10.5910663730733  5.78987102862535 10.2041522491349  5.42812205095942 9.79207297892419  C 4.4026423403586 8.63447625039321  3.88046555520604 7.40138408304498  3.88046555520604 6.12425290972004  C 3.88046555520604 4.71185907518087  4.47184649260774 3.34979553318654  5.50676313306071 2.38093740169865  C 6.31204781377792 1.62598301352627  7.31550802139037 1.16042780748663  8.40390059767222 1.03460207612457  C 8.42906574394464 1.03145643284052  8.4573765335011 1.02831078955646  8.48254167977351 1.02831078955646  L 8.49826989619377 1.02516514627241  C 8.50456118276187 1.02516514627241  8.51085246932998 1.02201950298836  8.51714375589808 1.02201950298836  C 8.55803711859075 1.01572821642026  8.59893048128342 1.01572821642026  8.64296948726014 1.01258257313621  C 8.67442592010066 1.00943692985215  8.70902799622523 1.0062912865681  8.74048442906575 1.0062912865681  C 8.756212645486 1.0062912865681  8.77194086190626 1.00314564328405  8.78766907832652 1.00314564328405  L 8.79396036489462 1.00314564328405  C 8.81283422459893 1.00314564328405  8.82541679773514 1  8.84429065743945 1  C 8.86316451714376 1  8.87889273356402 1  8.89776659326832 0.996854356715948  L 9.10537905001573 0.996854356715948  C 9.12425290972004 0.996854356715948  9.1399811261403 0.996854356715948  9.15885498584461 1  C 9.17772884554892 1  9.19031141868512 1  9.20918527838943 1.00314564328405  L 9.21547656495754 1.00314564328405  C 9.23120478137779 1.00314564328405  9.24693299779805 1.00314564328405  9.26266121421831 1.0062912865681  C 9.29411764705883 1.00943692985215  9.32871972318339 1.00943692985215  9.35703051273986 1.01258257313621  C 9.40106951871658 1.01572821642026  9.44196288140925 1.01887385970431  9.48285624410192 1.02201950298836  C 9.48914753067002 1.02201950298836  9.49543881723813 1.02201950298836  9.50173010380623 1.02516514627241  L 9.51745832022649 1.02831078955646  C 9.5426234664989 1.03145643284052  9.57093425605536 1.03460207612457  9.59609940232778 1.03460207612457  C 10.6876376218937 1.16042780748663  11.6910978295061 1.62598301352627  12.4963825102233 2.3777917584146  C 13.5312991506763 3.34664988990249  14.122680088078 4.71185907518087  14.122680088078 6.12110726643599  C 14.122680088078 7.34790814721611  13.631959735766 8.51494180559925  12.5781692356087 9.78578169235609  C 12.2038376848065 10.2356086819755  12.0434098773199 10.6036489462095  12.0434098773199 11.0125825731362  L 12.0434098773199 11.5001572821642  C 12.0434098773199 11.7172066687638  12.0843032400126 11.9279647687952  12.1660899653979 12.1292859389745  C 12.229002831079 12.2771311733249  12.3107895564643 12.4218307643913  12.4114501415539 12.5476564957534  L 12.4523435042466 12.5979867882982  C 12.6064800251651 12.7772884554891  12.7983642654923 12.9219880465555  13.0122680088078 13.0195029883611  L 16.0887071406103 14.4507706826046  C 17.0638565586662 14.903743315508  17.7558980811576 15.8096885813149  17.9509279647688 16.8792072978924  C 17.963510537905 16.9452658068575  17.9698018244731 17.0050330292545  17.9792387543253 17.0648002516515  C 17.9855300408934 17.096256684492  17.9855300408934 17.1340044039006  17.9855300408934 17.1686064800252  L 17.9855300408934 17.21893677257  C 17.9792387543253 17.4391318024536  17.8911607423718 17.6530355457691  17.7433155080214 17.8166089965398  C 17.5608681975464 18.0305127398553  17.2997798049701 18.1469015413652  17.0229631959736 18.1469015413652  Z M 9.01415539477823 1.27367096571249  L 9.00157282164203 1.27996225228059  L 8.90405787983643 1.27996225228059  C 8.88518402013212 1.27996225228059  8.86945580371186 1.27996225228059  8.8537275872916 1.28310789556464  C 8.83799937087134 1.28310789556464  8.82227115445108 1.28310789556464  8.80654293803082 1.28625353884869  L 8.80025165146272 1.28625353884869  C 8.78452343504246 1.28625353884869  8.76879521862221 1.28625353884869  8.756212645486 1.28939918213275  C 8.72475621264548 1.2925448254168  8.69329977980497 1.2925448254168  8.66184334696445 1.29569046870085  C 8.62094998427178 1.2988361119849  8.58320226486316 1.30198175526895  8.54230890217049 1.305127398553  L 8.51085246932998 1.30827304183706  L 8.43535703051274 1.31456432840516  C 7.40358603334382 1.43409877319912  6.45360176156024 1.87448883296634  5.69235608681976 2.585404215162  C 4.71720666876376 3.50078641082101  4.15413652091853 4.79364580056622  4.15413652091853 6.12739855300409  C 4.15413652091853 7.33217993079585  4.65114815979868 8.50550487574709  5.63258886442278 9.6096256684492  C 6.04152249134948 10.0720352312048  6.23340673167663 10.5187165775401  6.23340673167663 11.0188738597043  L 6.23340673167663 11.5064485687323  C 6.23340673167663 11.7581000314564  6.18622208241585 12.0034602076125  6.08870714061026 12.2393834539163  C 6.01635734507707 12.4155394778232  5.91884240327147 12.5791129285939  5.80245360176156 12.7269581629443  L 5.75841459578484 12.7835797420573  C 5.5791129285939 12.9911921988047  5.35262661214218 13.1642025794275  5.10726643598616 13.2805913809374  L 2.03082730418371 14.7118590751809  C 1.14375589808116 15.1239383453916  0.505190311418685 15.9543881723813  0.329034287511796 16.9358288770053  C 0.319597357659641 16.9955960994023  0.310160427807486 17.0522176785153  0.303869141239383 17.1056936143441  C 0.300723497955332 17.1340044039006  0.300723497955332 17.156023906889  0.300723497955332 17.1811890531614  L 0.300723497955332 17.2157911292859  C 0.307014784523435 17.3730732934885  0.369927650204466 17.524064171123  0.470588235294117 17.643598615917  C 0.602705253224284 17.7882982069833  0.788298206983328 17.8732305756527  0.980182447310475 17.8732305756527  L 17.0261088392576 17.8732305756527  C 17.2211387228688 17.8732305756527  17.4098773199119 17.7914438502674  17.535703051274 17.6404529726329  C 17.6395092796477 17.5209185278389  17.7024221453287 17.3699276502045  17.7055677886128 17.2126454860019  L 17.7055677886128 17.1780434098773  C 17.7055677886128 17.1528782636049  17.7024221453287 17.1277131173325  17.6992765020447 17.1056936143441  C 17.6929852154766 17.0490720352312  17.6835482856244 16.9955960994023  17.6741113557723 16.9358288770053  C 17.4979553318654 15.9543881723813  16.8593897452029 15.1239383453916  15.9691726958163 14.7087134318968  L 12.8927335640138 13.2774457376533  C 12.6473733878578 13.1610569361434  12.4208870714061 12.9911921988047  12.2415854042152 12.7804340987732  L 12.2384397609311 12.7741428122051  L 12.1975463982384 12.7206668763762  C 12.0780119534445 12.5728216420258  11.9836426549229 12.4092481912551  11.9112928593897 12.2362378106323  C 11.8169235608682 12.0003145643284  11.7665932683234 11.7518087448883  11.7665932683234 11.5001572821642  L 11.7665932683234 11.0125825731362  C 11.7665932683234 10.5407360805285  11.9490405787984 10.1066373073293  12.3642654922932 9.6096256684492  C 13.3771626297578 8.39226171752123  13.8458634790815 7.28499528153507  13.8458634790815 6.12110726643599  C 13.8458634790815 4.78420887071406  13.2859389745203 3.49449512425291  12.3076439131802 2.5791129285939  C 11.5463982384398 1.86819754639824  10.5964139666562 1.42780748663102  9.56464296948726 1.30827304183706  L 9.48914753067002 1.30198175526895  L 9.45769109782951 1.2988361119849  C 9.41679773513684 1.29569046870085  9.37590437244416 1.2925448254168  9.33815665303555 1.28939918213275  C 9.30670022019503 1.28625353884869  9.27838943063857 1.28625353884869  9.243787354514 1.28310789556464  C 9.22805913809374 1.28310789556464  9.21233092167348 1.27996225228059  9.19974834853728 1.27996225228059  L 9.19345706196918 1.27996225228059  C 9.17772884554892 1.27996225228059  9.16200062912866 1.27996225228059  9.1462724127084 1.27681660899654  C 9.12739855300409 1.27681660899654  9.11167033658383 1.27681660899654  9.09594212016357 1.27367096571249  L 9.01415539477823 1.27367096571249  Z M 17.0166719094055 17.0301981755269  L 17.0449826989619 17  L 0.958162944322114 17  L 0.989619377162629 17.036489462095  C 1.13117332494495 16.2815350739226  1.6281849638251 15.6398238439761  2.3170808430324 15.3189682290028  L 3.58477508650519 14.7275872916011  L 3.69172695816294 14.6741113557723  L 5.3903743315508 13.8845548914753  C 6.20195029883611 13.5070776973891  6.75558351682919 12.7521233092167  6.88140924819126 11.8650519031142  L 6.88140924819126 11.8587606165461  C 6.90028310789556 11.7360805284681  6.91286568103177 11.6134004403901  6.91286568103177 11.5001572821642  L 6.91286568103177 11.0125825731362  C 6.91286568103177 10.3551431267694  6.6769424347279 9.79521862220824  6.11701793016672 9.13148788927336  C 5.17647058823529 8.01478452343504  4.74866310160428 6.87606165460837  4.84617804340988 5.7499213589179  C 5.01918842403271 3.73041837055678  6.6769424347279 2.10097514941806  8.70588235294118 1.95942120163573  C 8.7499213589179 1.95627555835168  8.79710600817867 1.95312991506763  8.8474363007235 1.95312991506763  L 8.86631016042781 1.95312991506763  C 8.91349480968858 1.94998427178358  8.96067945894935 1.94998427178358  9.00471846492608 1.94998427178358  C 9.0487574709028 1.94998427178358  9.09594212016357 1.94998427178358  9.14312676942435 1.95312991506763  L 9.1588549858446 1.95312991506763  C 9.20918527838943 1.95627555835168  9.25322428436615 1.95942120163573  9.30040893362692 1.95942120163573  C 11.3230575652721 2.10097514941806  12.9839572192513 3.73041837055678  13.1569675998742 5.7499213589179  C 13.2576281849638 6.90437244416483  12.8298206983328 8.04624095627556  11.8861277131173 9.13148788927336  C 11.3230575652721 9.77949040578798  11.0934256055363 10.326832337213  11.0934256055363 11.0094369298522  L 11.0934256055363 11.4970116388802  C 11.0934256055363 11.610254797106  11.1028625353885 11.7297892419  11.1248820383768 11.855614973262  L 11.1248820383768 11.8587606165461  C 11.2475621264549 12.7458320226486  11.804340987732 13.500786410821  12.6159169550173 13.8782636049072  L 14.4340987731991 14.7244416483171  L 14.4340987731991 14.7275872916011  L 15.6892104435357 15.3126769424347  C 16.378106322743 15.633532557408  16.8751179616232 16.2752437873545  17.0166719094055 17.0301981755269  Z M 1.29789241899969 16.9232463038691  L 1.29789241899969 17  L 16.7052532242844 17  C 16.5448254167977 16.3255740798993  16.1296005033029 15.8285624410192  15.5696759987417 15.570619691727  L 14.0566215791129 14.8659955960994  L 14.0566215791129 14.8628499528154  L 12.4932368669393 14.1362063541994  C 11.5967285309846 13.7209814407046  10.9833280905945 12.8842403271469  10.8449197860963 11.9027996225228  C 10.8229002831079 11.7643913180245  10.8103177099717 11.6322743000944  10.8103177099717 11.5033029254483  L 10.8103177099717 11.0157282164203  C 10.8103177099717 10.2576281849638  11.0588235294118 9.66310160427807  11.6722239698018 8.95533186536647  C 12.5655866624725 7.9267065114816  12.9713746461151 6.85718779490406  12.8770053475936 5.77823214847436  C 12.7165775401069 3.89084617804341  11.1657754010695 2.37150047184649  9.27209814407046 2.23938345391633  C 9.23120478137779 2.23623781063227  9.18716577540107 2.23309216734822  9.13998112614029 2.23309216734822  L 9.12425290972003 2.23309216734822  C 9.08021390374331 2.22994652406417  9.03617489776659 2.22994652406417  8.99528153507392 2.22994652406417  C 8.95438817238125 2.22994652406417  8.91349480968858 2.22994652406417  8.8663101604278 2.23309216734822  L 8.85687323057565 2.23309216734822  C 8.81283422459893 2.23623781063227  8.76564957533816 2.23938345391633  8.72475621264548 2.23938345391633  C 6.83107895564643 2.37150047184649  5.28342245989305 3.89399182132746  5.11984900912237 5.77823214847436  C 5.02862535388487 6.82887700534759  5.43441333752753 7.89839572192513  6.32463038691412 8.95533186536647  C 6.92859389745203 9.66939289084618  7.18653664674426 10.2859389745203  7.18653664674426 11.0125825731362  L 7.18653664674426 11.5001572821642  C 7.18653664674426 11.6291286568103  7.17395407360805 11.7643913180245  7.15193457061969 11.8996539792388  C 7.01667190940547 12.8810946838628  6.40012582573136 13.7178357974206  5.50361748977666 14.1330607109154  L 3.80811575967285 14.9226171752123  L 3.7011638880151 14.9760931110412  L 2.43032400125826 15.5674740484429  C 1.87354513998113 15.8285624410192  1.45832022648632 16.3287197231834  1.29789241899969 16.9232463038691  Z " fill-rule="nonzero" fill="#939393" stroke="none" transform="matrix(1 0 0 1 1024 1364 )" />
    <path d="M 17.0229631959736 18.1469015413652  L 0.980182447310475 18.1469015413652  C 0.706511481597987 18.1469015413652  0.445423089021705 18.0273670965713  0.259830135262661 17.8260459263919  C 0.111984900912236 17.6593268323372  0.0270525322428433 17.4454230890217  0.0176156023906886 17.2252280591381  L 0.0176156023906886 17.1748977665933  C 0.0176156023906886 17.1402956904687  0.0207612456747401 17.1056936143441  0.0239068889587917 17.0710915382196  C 0.0301981755268949 17.0113243158226  0.0427807486631013 16.9515570934256  0.052217678515256 16.8854985844605  C 0.244101918842403 15.815979867883  0.939289084617804 14.9068889587921  1.9144385026738 14.4570619691727  L 4.99087763447625 13.0257942749292  C 5.20163573450771 12.9282793331236  5.39666561811891 12.7804340987732  5.55080213903743 12.6042780748663  L 5.5916955017301 12.5539477823215  C 5.69235608681975 12.4249764076754  5.7741428122051 12.283422459893  5.83705567788613 12.1324315822586  C 5.91884240327147 11.9342560553633  5.95973576596414 11.7234979553319  5.95973576596414 11.5064485687323  L 5.95973576596414 11.0188738597043  C 5.95973576596414 10.5910663730733  5.78987102862535 10.2041522491349  5.42812205095942 9.79207297892419  C 4.4026423403586 8.63447625039321  3.88046555520604 7.40138408304498  3.88046555520604 6.12425290972004  C 3.88046555520604 4.71185907518087  4.47184649260774 3.34979553318654  5.50676313306071 2.38093740169865  C 6.31204781377792 1.62598301352627  7.31550802139037 1.16042780748663  8.40390059767222 1.03460207612457  C 8.42906574394464 1.03145643284052  8.4573765335011 1.02831078955646  8.48254167977351 1.02831078955646  L 8.49826989619377 1.02516514627241  C 8.50456118276187 1.02516514627241  8.51085246932998 1.02201950298836  8.51714375589808 1.02201950298836  C 8.55803711859075 1.01572821642026  8.59893048128342 1.01572821642026  8.64296948726014 1.01258257313621  C 8.67442592010066 1.00943692985215  8.70902799622523 1.0062912865681  8.74048442906575 1.0062912865681  C 8.756212645486 1.0062912865681  8.77194086190626 1.00314564328405  8.78766907832652 1.00314564328405  L 8.79396036489462 1.00314564328405  C 8.81283422459893 1.00314564328405  8.82541679773514 1  8.84429065743945 1  C 8.86316451714376 1  8.87889273356402 1  8.89776659326832 0.996854356715948  L 9.10537905001573 0.996854356715948  C 9.12425290972004 0.996854356715948  9.1399811261403 0.996854356715948  9.15885498584461 1  C 9.17772884554892 1  9.19031141868512 1  9.20918527838943 1.00314564328405  L 9.21547656495754 1.00314564328405  C 9.23120478137779 1.00314564328405  9.24693299779805 1.00314564328405  9.26266121421831 1.0062912865681  C 9.29411764705883 1.00943692985215  9.32871972318339 1.00943692985215  9.35703051273986 1.01258257313621  C 9.40106951871658 1.01572821642026  9.44196288140925 1.01887385970431  9.48285624410192 1.02201950298836  C 9.48914753067002 1.02201950298836  9.49543881723813 1.02201950298836  9.50173010380623 1.02516514627241  L 9.51745832022649 1.02831078955646  C 9.5426234664989 1.03145643284052  9.57093425605536 1.03460207612457  9.59609940232778 1.03460207612457  C 10.6876376218937 1.16042780748663  11.6910978295061 1.62598301352627  12.4963825102233 2.3777917584146  C 13.5312991506763 3.34664988990249  14.122680088078 4.71185907518087  14.122680088078 6.12110726643599  C 14.122680088078 7.34790814721611  13.631959735766 8.51494180559925  12.5781692356087 9.78578169235609  C 12.2038376848065 10.2356086819755  12.0434098773199 10.6036489462095  12.0434098773199 11.0125825731362  L 12.0434098773199 11.5001572821642  C 12.0434098773199 11.7172066687638  12.0843032400126 11.9279647687952  12.1660899653979 12.1292859389745  C 12.229002831079 12.2771311733249  12.3107895564643 12.4218307643913  12.4114501415539 12.5476564957534  L 12.4523435042466 12.5979867882982  C 12.6064800251651 12.7772884554891  12.7983642654923 12.9219880465555  13.0122680088078 13.0195029883611  L 16.0887071406103 14.4507706826046  C 17.0638565586662 14.903743315508  17.7558980811576 15.8096885813149  17.9509279647688 16.8792072978924  C 17.963510537905 16.9452658068575  17.9698018244731 17.0050330292545  17.9792387543253 17.0648002516515  C 17.9855300408934 17.096256684492  17.9855300408934 17.1340044039006  17.9855300408934 17.1686064800252  L 17.9855300408934 17.21893677257  C 17.9792387543253 17.4391318024536  17.8911607423718 17.6530355457691  17.7433155080214 17.8166089965398  C 17.5608681975464 18.0305127398553  17.2997798049701 18.1469015413652  17.0229631959736 18.1469015413652  Z " stroke-width="2" stroke="#797979" fill="none" transform="matrix(1 0 0 1 1024 1364 )" mask="url(#clip8)" />
    <path d="M 9.01415539477823 1.27367096571249  L 9.00157282164203 1.27996225228059  L 8.90405787983643 1.27996225228059  C 8.88518402013212 1.27996225228059  8.86945580371186 1.27996225228059  8.8537275872916 1.28310789556464  C 8.83799937087134 1.28310789556464  8.82227115445108 1.28310789556464  8.80654293803082 1.28625353884869  L 8.80025165146272 1.28625353884869  C 8.78452343504246 1.28625353884869  8.76879521862221 1.28625353884869  8.756212645486 1.28939918213275  C 8.72475621264548 1.2925448254168  8.69329977980497 1.2925448254168  8.66184334696445 1.29569046870085  C 8.62094998427178 1.2988361119849  8.58320226486316 1.30198175526895  8.54230890217049 1.305127398553  L 8.51085246932998 1.30827304183706  L 8.43535703051274 1.31456432840516  C 7.40358603334382 1.43409877319912  6.45360176156024 1.87448883296634  5.69235608681976 2.585404215162  C 4.71720666876376 3.50078641082101  4.15413652091853 4.79364580056622  4.15413652091853 6.12739855300409  C 4.15413652091853 7.33217993079585  4.65114815979868 8.50550487574709  5.63258886442278 9.6096256684492  C 6.04152249134948 10.0720352312048  6.23340673167663 10.5187165775401  6.23340673167663 11.0188738597043  L 6.23340673167663 11.5064485687323  C 6.23340673167663 11.7581000314564  6.18622208241585 12.0034602076125  6.08870714061026 12.2393834539163  C 6.01635734507707 12.4155394778232  5.91884240327147 12.5791129285939  5.80245360176156 12.7269581629443  L 5.75841459578484 12.7835797420573  C 5.5791129285939 12.9911921988047  5.35262661214218 13.1642025794275  5.10726643598616 13.2805913809374  L 2.03082730418371 14.7118590751809  C 1.14375589808116 15.1239383453916  0.505190311418685 15.9543881723813  0.329034287511796 16.9358288770053  C 0.319597357659641 16.9955960994023  0.310160427807486 17.0522176785153  0.303869141239383 17.1056936143441  C 0.300723497955332 17.1340044039006  0.300723497955332 17.156023906889  0.300723497955332 17.1811890531614  L 0.300723497955332 17.2157911292859  C 0.307014784523435 17.3730732934885  0.369927650204466 17.524064171123  0.470588235294117 17.643598615917  C 0.602705253224284 17.7882982069833  0.788298206983328 17.8732305756527  0.980182447310475 17.8732305756527  L 17.0261088392576 17.8732305756527  C 17.2211387228688 17.8732305756527  17.4098773199119 17.7914438502674  17.535703051274 17.6404529726329  C 17.6395092796477 17.5209185278389  17.7024221453287 17.3699276502045  17.7055677886128 17.2126454860019  L 17.7055677886128 17.1780434098773  C 17.7055677886128 17.1528782636049  17.7024221453287 17.1277131173325  17.6992765020447 17.1056936143441  C 17.6929852154766 17.0490720352312  17.6835482856244 16.9955960994023  17.6741113557723 16.9358288770053  C 17.4979553318654 15.9543881723813  16.8593897452029 15.1239383453916  15.9691726958163 14.7087134318968  L 12.8927335640138 13.2774457376533  C 12.6473733878578 13.1610569361434  12.4208870714061 12.9911921988047  12.2415854042152 12.7804340987732  L 12.2384397609311 12.7741428122051  L 12.1975463982384 12.7206668763762  C 12.0780119534445 12.5728216420258  11.9836426549229 12.4092481912551  11.9112928593897 12.2362378106323  C 11.8169235608682 12.0003145643284  11.7665932683234 11.7518087448883  11.7665932683234 11.5001572821642  L 11.7665932683234 11.0125825731362  C 11.7665932683234 10.5407360805285  11.9490405787984 10.1066373073293  12.3642654922932 9.6096256684492  C 13.3771626297578 8.39226171752123  13.8458634790815 7.28499528153507  13.8458634790815 6.12110726643599  C 13.8458634790815 4.78420887071406  13.2859389745203 3.49449512425291  12.3076439131802 2.5791129285939  C 11.5463982384398 1.86819754639824  10.5964139666562 1.42780748663102  9.56464296948726 1.30827304183706  L 9.48914753067002 1.30198175526895  L 9.45769109782951 1.2988361119849  C 9.41679773513684 1.29569046870085  9.37590437244416 1.2925448254168  9.33815665303555 1.28939918213275  C 9.30670022019503 1.28625353884869  9.27838943063857 1.28625353884869  9.243787354514 1.28310789556464  C 9.22805913809374 1.28310789556464  9.21233092167348 1.27996225228059  9.19974834853728 1.27996225228059  L 9.19345706196918 1.27996225228059  C 9.17772884554892 1.27996225228059  9.16200062912866 1.27996225228059  9.1462724127084 1.27681660899654  C 9.12739855300409 1.27681660899654  9.11167033658383 1.27681660899654  9.09594212016357 1.27367096571249  L 9.01415539477823 1.27367096571249  Z " stroke-width="2" stroke="#797979" fill="none" transform="matrix(1 0 0 1 1024 1364 )" mask="url(#clip8)" />
    <path d="M 17.0166719094055 17.0301981755269  L 17.0449826989619 17  L 0.958162944322114 17  L 0.989619377162629 17.036489462095  C 1.13117332494495 16.2815350739226  1.6281849638251 15.6398238439761  2.3170808430324 15.3189682290028  L 3.58477508650519 14.7275872916011  L 3.69172695816294 14.6741113557723  L 5.3903743315508 13.8845548914753  C 6.20195029883611 13.5070776973891  6.75558351682919 12.7521233092167  6.88140924819126 11.8650519031142  L 6.88140924819126 11.8587606165461  C 6.90028310789556 11.7360805284681  6.91286568103177 11.6134004403901  6.91286568103177 11.5001572821642  L 6.91286568103177 11.0125825731362  C 6.91286568103177 10.3551431267694  6.6769424347279 9.79521862220824  6.11701793016672 9.13148788927336  C 5.17647058823529 8.01478452343504  4.74866310160428 6.87606165460837  4.84617804340988 5.7499213589179  C 5.01918842403271 3.73041837055678  6.6769424347279 2.10097514941806  8.70588235294118 1.95942120163573  C 8.7499213589179 1.95627555835168  8.79710600817867 1.95312991506763  8.8474363007235 1.95312991506763  L 8.86631016042781 1.95312991506763  C 8.91349480968858 1.94998427178358  8.96067945894935 1.94998427178358  9.00471846492608 1.94998427178358  C 9.0487574709028 1.94998427178358  9.09594212016357 1.94998427178358  9.14312676942435 1.95312991506763  L 9.1588549858446 1.95312991506763  C 9.20918527838943 1.95627555835168  9.25322428436615 1.95942120163573  9.30040893362692 1.95942120163573  C 11.3230575652721 2.10097514941806  12.9839572192513 3.73041837055678  13.1569675998742 5.7499213589179  C 13.2576281849638 6.90437244416483  12.8298206983328 8.04624095627556  11.8861277131173 9.13148788927336  C 11.3230575652721 9.77949040578798  11.0934256055363 10.326832337213  11.0934256055363 11.0094369298522  L 11.0934256055363 11.4970116388802  C 11.0934256055363 11.610254797106  11.1028625353885 11.7297892419  11.1248820383768 11.855614973262  L 11.1248820383768 11.8587606165461  C 11.2475621264549 12.7458320226486  11.804340987732 13.500786410821  12.6159169550173 13.8782636049072  L 14.4340987731991 14.7244416483171  L 14.4340987731991 14.7275872916011  L 15.6892104435357 15.3126769424347  C 16.378106322743 15.633532557408  16.8751179616232 16.2752437873545  17.0166719094055 17.0301981755269  Z " stroke-width="2" stroke="#797979" fill="none" transform="matrix(1 0 0 1 1024 1364 )" mask="url(#clip8)" />
    <path d="M 1.29789241899969 16.9232463038691  L 1.29789241899969 17  L 16.7052532242844 17  C 16.5448254167977 16.3255740798993  16.1296005033029 15.8285624410192  15.5696759987417 15.570619691727  L 14.0566215791129 14.8659955960994  L 14.0566215791129 14.8628499528154  L 12.4932368669393 14.1362063541994  C 11.5967285309846 13.7209814407046  10.9833280905945 12.8842403271469  10.8449197860963 11.9027996225228  C 10.8229002831079 11.7643913180245  10.8103177099717 11.6322743000944  10.8103177099717 11.5033029254483  L 10.8103177099717 11.0157282164203  C 10.8103177099717 10.2576281849638  11.0588235294118 9.66310160427807  11.6722239698018 8.95533186536647  C 12.5655866624725 7.9267065114816  12.9713746461151 6.85718779490406  12.8770053475936 5.77823214847436  C 12.7165775401069 3.89084617804341  11.1657754010695 2.37150047184649  9.27209814407046 2.23938345391633  C 9.23120478137779 2.23623781063227  9.18716577540107 2.23309216734822  9.13998112614029 2.23309216734822  L 9.12425290972003 2.23309216734822  C 9.08021390374331 2.22994652406417  9.03617489776659 2.22994652406417  8.99528153507392 2.22994652406417  C 8.95438817238125 2.22994652406417  8.91349480968858 2.22994652406417  8.8663101604278 2.23309216734822  L 8.85687323057565 2.23309216734822  C 8.81283422459893 2.23623781063227  8.76564957533816 2.23938345391633  8.72475621264548 2.23938345391633  C 6.83107895564643 2.37150047184649  5.28342245989305 3.89399182132746  5.11984900912237 5.77823214847436  C 5.02862535388487 6.82887700534759  5.43441333752753 7.89839572192513  6.32463038691412 8.95533186536647  C 6.92859389745203 9.66939289084618  7.18653664674426 10.2859389745203  7.18653664674426 11.0125825731362  L 7.18653664674426 11.5001572821642  C 7.18653664674426 11.6291286568103  7.17395407360805 11.7643913180245  7.15193457061969 11.8996539792388  C 7.01667190940547 12.8810946838628  6.40012582573136 13.7178357974206  5.50361748977666 14.1330607109154  L 3.80811575967285 14.9226171752123  L 3.7011638880151 14.9760931110412  L 2.43032400125826 15.5674740484429  C 1.87354513998113 15.8285624410192  1.45832022648632 16.3287197231834  1.29789241899969 16.9232463038691  Z " stroke-width="2" stroke="#797979" fill="none" transform="matrix(1 0 0 1 1024 1364 )" mask="url(#clip8)" />
  </g>
</svg>