<?xml version="1.0" encoding="UTF-8"?>
<svg width="18px" height="20px" viewBox="0 0 18 20" version="1.1" xmlns="http://www.w3.org/2000/svg" xmlns:xlink="http://www.w3.org/1999/xlink">
    <title>wodegongwen01</title>
    <g id="页面-1" stroke="none" stroke-width="1" fill="none" fill-rule="evenodd">
        <g id="请销假V2.0-我要请假" transform="translate(-24.000000, -164.000000)">
            <g id="我的公文" transform="translate(0.000000, 139.000000)">
                <g id="wodegongwen01" transform="translate(24.000000, 25.000000)">
                    <rect id="矩形" stroke="#FF920C" stroke-width="2" x="1" y="1" width="16" height="18" rx="2"></rect>
                    <path d="M11.9898125,6.17354836 C11.9689236,6.11048 11.9182078,6.06187318 11.854336,6.04359541 L10.1439584,5.5549161 L9.16710196,4.08948074 C9.12984343,4.03354272 9.06717678,4 9,4 C8.93280504,4 8.87013839,4.03354272 8.83287986,4.08948074 L7.85592295,5.5549161 L6.14564579,6.04359541 C6.08056889,6.06217447 6.02915011,6.11238812 6.00906464,6.17706331 C5.98897918,6.24163808 6.00273772,6.31213805 6.04572061,6.36436025 L7.18416464,7.74674223 L7.10281852,9.5357544 C7.0998057,9.60233771 7.13003432,9.66610906 7.18366251,9.7059787 C7.23708984,9.74574792 7.30698725,9.75639321 7.36985475,9.73439963 L9.00159775,9.16336992 L10.7178001,9.7354039 C10.7385886,9.74233339 10.76008,9.74565308 10.7813706,9.74565308 C10.8244539,9.74565308 10.8671355,9.73178852 10.9024859,9.70507485 C10.9552103,9.66520521 10.9850372,9.60183558 10.9820244,9.5357544 L10.9004774,7.74262471 L11.95868,6.35873632 C11.9990518,6.30591156 12.0107014,6.23661671 11.9898125,6.17354836" id="Fill-11" fill="#FF920C"></path>
                    <rect id="矩形" stroke="#FF920C" x="5.5" y="11.5" width="7" height="1" rx="0.5"></rect>
                    <rect id="矩形" stroke="#FF920C" x="5.5" y="14.5" width="5" height="1" rx="0.5"></rect>
                </g>
            </g>
        </g>
    </g>
</svg>
