<?xml version="1.0" encoding="UTF-8"?>
<svg width="12px" height="7px" viewBox="0 0 12 7" version="1.1" xmlns="http://www.w3.org/2000/svg" xmlns:xlink="http://www.w3.org/1999/xlink">
    <title>xia</title>
    <g id="页面-1" stroke="none" stroke-width="1" fill="none" fill-rule="evenodd">
        <g id="请销假V2.0-我要请假" transform="translate(-344.000000, -1017.000000)" fill="#BBBBBB" fill-rule="nonzero">
            <g id="表单" transform="translate(200.000000, 80.000000)">
                <g id="页码" transform="translate(20.000000, 928.000000)">
                    <path d="M132.737351,12.7314631 C132.777189,12.6897096 132.79828,12.6386076 132.825469,12.5908066 C132.832978,12.5762672 132.845149,12.5640964 132.851726,12.5490783 C132.98064,12.280944 132.938433,11.9528379 132.710162,11.7371915 L127.535631,6.84299041 C127.253436,6.57626719 126.808612,6.58891671 126.54141,6.87065806 C126.274686,7.15285299 126.286882,7.59767728 126.569077,7.86487927 L131.212052,12.2570561 L126.587346,16.7143955 C126.307973,16.9839157 126.299532,17.4287652 126.569077,17.7086167 C126.706886,17.852045 126.891111,17.9237843 127.075335,17.9237843 C127.251118,17.9237843 127.4269,17.8581681 127.563298,17.7269106 L132.690961,12.7848833 C132.700814,12.7750308 132.704543,12.7614489 132.714395,12.7511429 C132.721904,12.7441126 132.729867,12.7389469 132.737351,12.7314631 Z" id="xia" transform="translate(129.636456, 12.287328) rotate(90.000000) translate(-129.636456, -12.287328) "></path>
                </g>
            </g>
        </g>
    </g>
</svg>
