<?xml version="1.0" encoding="UTF-8"?>
<svg width="16px" height="16px" viewBox="0 0 16 16" version="1.1" xmlns="http://www.w3.org/2000/svg" xmlns:xlink="http://www.w3.org/1999/xlink">
    <title>xinzeng</title>
    <g id="页面-1" stroke="none" stroke-width="1" fill="none" fill-rule="evenodd">
        <g id="请销假V2.0-我要请假" transform="translate(-1791.000000, -120.000000)" fill="#FFFFFF">
            <g id="表单" transform="translate(200.000000, 80.000000)">
                <g id="新增" transform="translate(1580.000000, 30.000000)">
                    <g id="xinzeng" transform="translate(11.000000, 10.000000)">
                        <path d="M7.9847619,1.49329524 C4.40533333,1.49329524 1.49333333,4.40567619 1.49333333,7.98472381 C1.49333333,11.5641524 4.40533333,14.4761524 7.9847619,14.4761524 C11.5641905,14.4761524 14.4761905,11.5641524 14.4761905,7.98472381 C14.4761905,4.40567619 11.5641905,1.49329524 7.9847619,1.49329524 M7.9847619,15.9694857 C3.58171429,15.9694857 0,12.3877714 0,7.98472381 C0,3.58167619 3.58171429,-3.80952381e-05 7.9847619,-3.80952381e-05 C12.3878095,-3.80952381e-05 15.9695238,3.58167619 15.9695238,7.98472381 C15.9695238,12.3877714 12.3878095,15.9694857 7.9847619,15.9694857" id="Fill-1"></path>
                        <path d="M8.08110476,11.9847238 C7.66053333,11.9847238 7.3192,11.6433905 7.3192,11.222819 L7.3192,4.93710476 C7.3192,4.51653333 7.66053333,4.1752 8.08110476,4.1752 C8.50167619,4.1752 8.84300952,4.51653333 8.84300952,4.93710476 L8.84300952,11.222819 C8.84300952,11.6433905 8.50167619,11.9847238 8.08110476,11.9847238" id="Fill-3"></path>
                        <path d="M11.1287238,8.93710476 L5.03348571,8.93710476 C4.61291429,8.93710476 4.27158095,8.59577143 4.27158095,8.1752 C4.27158095,7.75462857 4.61291429,7.41329524 5.03348571,7.41329524 L11.1287238,7.41329524 C11.5492952,7.41329524 11.8906286,7.75462857 11.8906286,8.1752 C11.8906286,8.59577143 11.5492952,8.93710476 11.1287238,8.93710476" id="Fill-5"></path>
                    </g>
                </g>
            </g>
        </g>
    </g>
</svg>
