<?xml version="1.0" encoding="UTF-8"?>
<svg width="7px" height="12px" viewBox="0 0 7 12" version="1.1" xmlns="http://www.w3.org/2000/svg" xmlns:xlink="http://www.w3.org/1999/xlink">
    <title>you</title>
    <g id="页面-1" stroke="none" stroke-width="1" fill="none" fill-rule="evenodd">
        <g id="请销假V2.0-我要请假" transform="translate(-650.000000, -1013.000000)" fill="#333333" fill-rule="nonzero">
            <g id="表单" transform="translate(200.000000, 80.000000)">
                <g id="页码" transform="translate(20.000000, 928.000000)">
                    <path d="M436.388223,11.0805908 C436.428062,11.0388374 436.449153,10.9877354 436.476341,10.9399343 C436.48385,10.9253949 436.496021,10.9132242 436.502598,10.8982061 C436.631512,10.6300717 436.589305,10.3019656 436.361034,10.0863192 L431.186503,5.19211817 C430.904308,4.92539495 430.459484,4.93804447 430.192282,5.21978582 C429.925559,5.50198075 429.937755,5.94680504 430.219949,6.21400703 L434.862924,10.6061838 L430.238218,15.0635232 C429.958845,15.3330434 429.950404,15.7778929 430.219949,16.0577444 C430.357759,16.2011727 430.541983,16.2729121 430.726207,16.2729121 C430.90199,16.2729121 431.077773,16.2072959 431.214171,16.0760383 L436.341833,11.1340111 C436.351686,11.1241585 436.355415,11.1105767 436.365268,11.1002706 C436.372777,11.0932403 436.380739,11.0880747 436.388223,11.0805908 Z" id="you" transform="translate(433.287328, 10.636456) rotate(360.000000) translate(-433.287328, -10.636456) "></path>
                </g>
            </g>
        </g>
    </g>
</svg>
