<?xml version="1.0" encoding="UTF-8"?>
<svg width="7px" height="12px" viewBox="0 0 7 12" version="1.1" xmlns="http://www.w3.org/2000/svg" xmlns:xlink="http://www.w3.org/1999/xlink">
    <title>zuo</title>
    <g id="页面-1" stroke="none" stroke-width="1" fill="none" fill-rule="evenodd">
        <g id="请销假V2.0-我要请假" transform="translate(-378.000000, -1013.000000)" fill="#333333" fill-rule="nonzero">
            <g id="表单" transform="translate(200.000000, 80.000000)">
                <g id="页码" transform="translate(20.000000, 928.000000)">
                    <path d="M164.388223,11.0805908 C164.428062,11.0388374 164.449153,10.9877354 164.476341,10.9399343 C164.48385,10.9253949 164.496021,10.9132242 164.502598,10.8982061 C164.631512,10.6300717 164.589305,10.3019656 164.361034,10.0863192 L159.186503,5.19211817 C158.904308,4.92539495 158.459484,4.93804447 158.192282,5.21978582 C157.925559,5.50198075 157.937755,5.94680504 158.219949,6.21400703 L162.862924,10.6061838 L158.238218,15.0635232 C157.958845,15.3330434 157.950404,15.7778929 158.219949,16.0577444 C158.357759,16.2011727 158.541983,16.2729121 158.726207,16.2729121 C158.90199,16.2729121 159.077773,16.2072959 159.214171,16.0760383 L164.341833,11.1340111 C164.351686,11.1241585 164.355415,11.1105767 164.365268,11.1002706 C164.372777,11.0932403 164.380739,11.0880747 164.388223,11.0805908 Z" id="zuo" transform="translate(161.287328, 10.636456) rotate(180.000000) translate(-161.287328, -10.636456) "></path>
                </g>
            </g>
        </g>
    </g>
</svg>
